<?xml version="1.0" encoding="UTF-8" standalone="no"?>
<!-- Created with Inkscape (http://www.inkscape.org/) -->

<svg
   xmlns:dc="http://purl.org/dc/elements/1.1/"
   xmlns:cc="http://creativecommons.org/ns#"
   xmlns:rdf="http://www.w3.org/1999/02/22-rdf-syntax-ns#"
   xmlns:svg="http://www.w3.org/2000/svg"
   xmlns="http://www.w3.org/2000/svg"
   xmlns:sodipodi="http://sodipodi.sourceforge.net/DTD/sodipodi-0.dtd"
   xmlns:inkscape="http://www.inkscape.org/namespaces/inkscape"
   width="210.96129"
   height="216.4687"
   id="svg18372"
   version="1.1"
   inkscape:version="0.48.5 r10040"
   sodipodi:docname="stickers-ECSL-2.svg">
  <defs
     id="defs18374">
    <filter
       color-interpolation-filters="sRGB"
       inkscape:collect="always"
       id="filter5183-74-37-4">
      <feGaussianBlur
         inkscape:collect="always"
         stdDeviation="0.25849639"
         id="feGaussianBlur5185-5-88-5" />
    </filter>
  </defs>
  <sodipodi:namedview
     id="base"
     pagecolor="#ffffff"
     bordercolor="#666666"
     borderopacity="1.0"
     inkscape:pageopacity="0.0"
     inkscape:pageshadow="2"
     inkscape:zoom="2.3282812"
     inkscape:cx="105.48065"
     inkscape:cy="108.23435"
     inkscape:document-units="px"
     inkscape:current-layer="layer1"
     showgrid="false"
     fit-margin-top="0"
     fit-margin-left="0"
     fit-margin-right="0"
     fit-margin-bottom="0"
     inkscape:window-width="1366"
     inkscape:window-height="702"
     inkscape:window-x="0"
     inkscape:window-y="27"
     inkscape:window-maximized="1" />
  <metadata
     id="metadata18377">
    <rdf:RDF>
      <cc:Work
         rdf:about="">
        <dc:format>image/svg+xml</dc:format>
        <dc:type
           rdf:resource="http://purl.org/dc/dcmitype/StillImage" />
        <dc:title></dc:title>
      </cc:Work>
    </rdf:RDF>
  </metadata>
  <g
     inkscape:label="Layer 1"
     inkscape:groupmode="layer"
     id="layer1"
     transform="translate(-269.51935,-424.1278)">
    <g
       transform="translate(4188.3908,-2602.7157)"
       id="g18230"
       inkscape:export-filename="/home/leogg/Downloads/stickers-ECSL-2.png"
       inkscape:export-xdpi="600"
       inkscape:export-ydpi="600">
      <path
         style="font-size:38.51332474px;font-style:normal;font-variant:normal;font-weight:normal;font-stretch:normal;text-indent:0;text-align:start;text-decoration:none;line-height:normal;letter-spacing:normal;word-spacing:normal;text-transform:none;direction:ltr;block-progression:tb;writing-mode:lr-tb;text-anchor:start;fill:#ffffff;fill-opacity:1;fill-rule:nonzero;stroke:none;stroke-width:1px;marker:none;visibility:visible;display:inline;overflow:visible;enable-background:accumulate;font-family:FreeSans;-inkscape-font-specification:FreeSans"
         d="m -3850.3125,3026.8438 c -12.5636,10e-5 -23.3148,1.9378 -32.125,6.9687 -0.01,0 -0.021,0 -0.031,0 -8.7528,5.0343 -14.9062,14.3976 -14.9062,24.3125 0,8.4874 4.5944,16.9802 11.6562,21.6875 7.0487,4.6986 15.8679,7.0088 27.2188,8.5937 0.01,0 0.021,0 0.031,0 l 8.5938,1.1876 0.031,0 c 6.1722,0.875 9.9848,2.3204 10.9688,2.875 -0.1891,0.049 -0.093,-0.066 -0.5938,0.1874 -2.1567,1.0942 -6.8986,2.2501 -14,2.25 -4.5433,0 -9.2971,-0.5139 -14.1874,-1.5312 -4.9028,-1.0198 -9.9483,-2.5326 -15.1876,-4.5938 -3.1206,-1.2267 -6.836,-0.8096 -9.6069,1.0785 -2.7709,1.8882 -4.5182,5.1935 -4.5181,8.5465 l 0,9.9376 -13.8124,3.0624 c -2.5965,0.5778 -4.9448,2.2008 -6.403,4.4256 -1.4582,2.2247 -2.0095,5.0256 -1.5033,7.637 l 11.625,60.4374 c 0.7827,4.0301 4.1857,7.4202 8.2187,8.1876 l 8.9063,1.6874 c -0.3002,0.2152 -0.6194,0.3804 -0.9063,0.625 -0.01,0.01 -0.021,0.021 -0.031,0.031 -3.034,2.6064 -4.7188,7.2259 -4.7188,10.5313 l -0.9374,21.3124 c 0,3.9773 1.4468,8.7185 4.5624,12 0.01,0 0.021,0 0.031,0 3.1509,3.303 8.0153,5.0311 12.125,5.0313 l 139.781,-0.25 c 3.2819,0 6.5218,-1.6657 8.4271,-4.3379 1.9052,-2.6722 2.4259,-6.2788 1.3541,-9.3808 l -1.9062,-5.5626 11.9687,2.2813 c 3.1063,0.5926 6.4666,-0.3381 8.8255,-2.4442 2.3589,-2.1061 3.6628,-5.34 3.4245,-8.4933 l -10,-134.2812 c -0.2247,-2.9403 -1.7762,-5.7537 -4.143,-7.5126 -2.3669,-1.7589 -5.5082,-2.433 -8.3883,-1.8 l -42.7187,9.4688 0.25,-43.6875 c 0.017,-2.7448 -1.112,-5.4791 -3.0616,-7.4113 -1.9496,-1.9321 -4.6939,-3.0371 -7.4384,-2.995 l -25.0313,0.375 c -3.0313,0.048 -6.0109,1.5088 -7.9062,3.875 -0.3278,-0.1209 -0.6617,-0.2252 -1,-0.3124 -5.6875,-1.3295 -11.2601,-2.3016 -16.7188,-2.9688 -5.4788,-0.6697 -10.8717,-1.0311 -16.2187,-1.0312 z m 11.7813,65.5 0.094,0 c 0,0 -0.056,0.034 -0.062,0.031 -0.01,0.019 -0.031,-0.063 -0.031,-0.031 z"
         id="path18301"
         inkscape:connector-curvature="0"
         sodipodi:nodetypes="cccsscccccccccscccsccccccccccccscccsccscccsccccsccccccc" />
      <g
         id="g18303"
         transform="matrix(1.0471434,0,0,1.0471434,-4553.6478,3735.5663)">
        <path
           style="fill:#c5d86d;fill-opacity:1;stroke:none"
           d="m 616.07327,-586.43299 172.15458,-38.06994 9.56793,128.24697 -170.61578,-32.45809 -11.10673,-57.71894 z"
           id="path18329"
           sodipodi:nodetypes="ccccc"
           inkscape:connector-curvature="0" />
        <path
           transform="matrix(0.4298322,0,0,0.4298322,924.28771,-1131.1118)"
           style="font-size:69.14278412px;font-style:normal;font-variant:normal;font-weight:normal;font-stretch:normal;text-indent:0;text-align:start;text-decoration:none;line-height:normal;letter-spacing:normal;word-spacing:normal;text-transform:none;direction:ltr;block-progression:tb;writing-mode:lr-tb;text-anchor:start;fill:#28502e;fill-opacity:1;fill-rule:nonzero;stroke:none;stroke-width:1px;marker:none;visibility:visible;display:inline;overflow:visible;filter:url(#filter5183-74-37-4);enable-background:accumulate;font-family:FreeSans;-inkscape-font-specification:Bitstream Vera Sans"
           d="m -587.74069,1079.9007 c -25.4243,10e-5 -45.4094,4.1413 -59.9375,12.4375 -14.4244,8.2964 -21.625,19.6532 -21.625,34.0625 0,12.4445 5.2378,22.1387 15.7188,29.125 10.4809,6.9864 27.4536,12.1314 50.9062,15.4062 l 19.125,2.625 c 15.9808,2.2561 27.4533,5.6443 34.40625,10.1563 7.05637,4.512 10.59357,10.7448 10.59375,18.75 -1.5e-4,9.1696 -4.90182,16.2388 -14.65625,21.1875 -9.75475,4.9487 -23.57875,7.4375 -41.53125,7.4375 -11.8301,0 -23.8799,-1.2966 -36.125,-3.8438 -12.2452,-2.5471 -24.7361,-6.3223 -37.5,-11.3437 l -0.0313,22.7187 c 13.2829,3.4204 26.1198,6.0034 38.4688,7.75 12.4526,1.7466 24.1875,2.5938 35.1875,2.5938 29.1599,0 51.23409,-4.068 66.28125,-12.2188 15.15058,-8.1507 22.74979,-20.1141 22.75,-35.9062 -1.8e-4,-13.245 -5.60525,-23.7966 -16.8125,-31.6563 -11.10379,-7.9324 -28.39137,-13.4643 -51.84375,-16.5937 l -19,-2.7188 c -17.2263,-2.2559 -28.9299,-5.2049 -35.1563,-8.8437 -6.1226,-3.7114 -9.1875,-9.1702 -9.1874,-16.375 -10e-5,-8.5873 4.6079,-15.2173 13.8437,-19.875 9.3394,-4.6575 22.565,-6.9999 39.6875,-7 9.8583,10e-5 20.1026,1.0039 30.6875,2.9687 10.58463,1.9651 21.81602,4.935 33.75,8.9375 l 0,-21.5 c -11.8302,-2.7653 -23.37646,-4.8359 -34.6875,-6.2187 -11.3113,-1.3826 -22.4166,-2.0624 -33.3125,-2.0625 z m 148.9375,0.125 -55.5625,0.8125 0,168.4062 150.96875,0 0,-33.6562 -96.1875,0 0.78125,-135.5625 z m -126.5938,174.25 c -30.7696,10e-5 -55.1417,7.6027 -73.125,22.8125 -17.9833,15.1372 -26.9687,35.728 -26.9687,61.7812 0,25.9806 8.9855,46.5714 26.9687,61.7813 17.9833,15.1371 42.3554,22.7187 73.125,22.7187 10.3114,0 20.20081,-1.0248 29.68755,-3.0625 9.48645,-2.0377 18.59943,-5.0599 27.34375,-9.0625 l 0,-33.7187 c -8.82682,5.3125 -17.51471,9.1819 -26.09375,11.6562 -8.57932,2.4744 -17.60725,3.7188 -27.09375,3.7188 -16.9935,0 -30.3597,-4.8 -40.0938,-14.4063 -9.7341,-9.6062 -14.5938,-22.8139 -14.5937,-39.625 -10e-5,-16.8836 4.8596,-30.1436 14.5937,-39.75 9.734,-9.6061 23.1003,-14.4061 40.0938,-14.4062 9.48647,10e-5 18.51444,1.2445 27.09375,3.7187 8.57903,2.4745 17.26694,6.3751 26.09375,11.6875 l 0,-33.75 c -8.74433,-4.0024 -17.85731,-6.9934 -27.34375,-9.0312 -9.48673,-2.0376 -19.37605,-3.0624 -29.68755,-3.0625 z m 137.93755,3.75 -63.21875,163 23.625,0 15.0625,-41.8125 74.6875,0 15.0625,41.8125 23.3125,0 -63.125,-163 -25.40625,0 z m 12.65625,21.7187 30.5,81.125 -60.90625,0 30.40625,-81.125 z"
           id="path18350"
           inkscape:connector-curvature="0" />
        <path
           style="font-size:38.51332474px;font-style:normal;font-variant:normal;font-weight:normal;font-stretch:normal;text-indent:0;text-align:start;text-decoration:none;line-height:normal;letter-spacing:normal;word-spacing:normal;text-transform:none;direction:ltr;block-progression:tb;writing-mode:lr-tb;text-anchor:start;fill:#28502e;fill-opacity:1;fill-rule:nonzero;stroke:none;stroke-width:1px;marker:none;visibility:visible;display:inline;overflow:visible;enable-background:accumulate;font-family:FreeSans;-inkscape-font-specification:FreeSans"
           d="m 642.42925,-510.22159 c -1.29006,0 -2.29857,0.31158 -3.03569,0.94025 -0.73192,0.62872 -1.10145,1.48705 -1.10145,2.579 0,0.94305 0.26069,1.68687 0.79248,2.21634 0.53183,0.52943 1.38905,0.9204 2.579,1.16859 l 0.98057,0.18805 c 0.81088,0.17098 1.39343,0.43718 1.7462,0.77907 0.35805,0.34193 0.53729,0.81715 0.53729,1.42382 0,0.69486 -0.2573,1.22343 -0.75221,1.59846 -0.49495,0.37498 -1.19794,0.56411 -2.10884,0.56415 -0.60031,0 -1.20551,-0.10251 -1.82679,-0.29551 -0.62137,-0.19304 -1.25975,-0.47913 -1.90742,-0.85966 l 0,1.73274 c 0.67402,0.25919 1.33454,0.44526 1.96115,0.57761 0.63181,0.13234 1.21492,0.20146 1.77306,0.20146 1.47957,0 2.60796,-0.30914 3.37147,-0.92681 0.76876,-0.61771 1.15518,-1.53003 1.15518,-2.72677 0,-1.0037 -0.29104,-1.79532 -0.85967,-2.39094 -0.56342,-0.60112 -1.42932,-1.02549 -2.61931,-1.26263 l -0.96712,-0.20146 c -0.87407,-0.17099 -1.47059,-0.39588 -1.78647,-0.67161 -0.31068,-0.28129 -0.47011,-0.6898 -0.47015,-1.23577 0,-0.65077 0.24333,-1.16493 0.71193,-1.51787 0.47389,-0.35293 1.13261,-0.52383 2.00143,-0.52383 0.50019,0 1.02106,0.0794 1.55814,0.22832 0.53703,0.14894 1.11378,0.36833 1.71933,0.67161 l 0,-1.62528 c -0.60031,-0.20958 -1.18569,-0.36535 -1.75965,-0.47015 -0.57395,-0.10475 -1.13957,-0.16114 -1.69246,-0.16118 z m 11.43083,0 c -1.6586,0 -2.98076,0.58255 -3.97595,1.74619 -0.98991,1.15814 -1.49096,2.70872 -1.49096,4.66101 0,1.95226 0.5011,3.51629 1.49096,4.67443 0.99519,1.1581 2.31731,1.73274 3.97595,1.73274 1.65339,0 2.98604,-0.57464 3.97594,-1.73274 0.98991,-1.16369 1.47755,-2.72767 1.47759,-4.67443 -4e-5,-1.95229 -0.48764,-3.50287 -1.47759,-4.66101 -0.9899,-1.16364 -2.3226,-1.74615 -3.97594,-1.74619 z m 7.95189,0.22837 0,12.34422 1.59846,0 0,-5.89674 4.67443,0 0,-1.41041 -4.67443,0 0,-3.64012 5.1714,0 0,-1.39695 -6.76986,0 z m 7.4012,0 0,1.39695 4.17745,0 0,10.94727 1.61187,0 0,-10.94727 4.19086,0 0,-1.39695 -9.98018,0 z m 10.47716,0 2.94168,12.34422 2.0148,0 2.51185,-10.71894 2.48497,10.71894 2.0014,0 2.96853,-12.34422 -1.6253,0 -2.47154,10.43684 -2.47153,-10.43684 -1.79992,0 -2.47154,10.43684 -2.47153,-10.43684 -1.61187,0 z m 19.18126,0 -4.49981,12.34422 1.67903,0 1.07458,-3.17001 5.31918,0 1.07458,3.17001 1.6656,0 -4.49981,-12.34422 -1.81335,0 z m 8.01905,0 0,12.34422 1.59844,0 0,-5.21172 1.73276,0 c 0.63185,0 1.12767,0.13273 1.49098,0.40297 0.36858,0.27024 0.75208,0.81152 1.14175,1.63874 l 1.50441,3.17001 1.71933,0 -1.61187,-3.37148 c -0.32647,-0.69491 -0.6541,-1.2417 -0.98056,-1.63873 -0.3212,-0.39708 -0.65174,-0.65773 -0.99398,-0.77907 0.65817,-0.19854 1.1487,-0.5483 1.49098,-1.06117 0.34751,-0.51288 0.52383,-1.15664 0.52385,-1.93425 0,-1.19119 -0.33053,-2.08288 -0.99398,-2.673 -0.66346,-0.59011 -1.6743,-0.88652 -3.02226,-0.88652 l -3.59985,0 z m 11.25624,0 0,12.34422 7.58922,0 0,-1.41037 -6.00422,0 0,-4.47296 5.61468,0 0,-1.39696 -5.61468,0 0,-3.66698 5.8699,0 0,-1.39695 -7.4549,0 z m 10.12792,0 0,12.34422 8.38172,0 0,-2.40435 -5.34603,0 0,-9.93987 -3.03569,0 z m 10.30254,0 0,12.34422 3.03569,0 0,-12.34422 -3.03569,0 z m 6.03108,0 0,12.34422 5.05053,0 c 1.5691,0 2.73705,-0.28851 3.50582,-0.87308 0.76874,-0.58461 1.15515,-1.46839 1.15517,-2.65958 -10e-6,-0.77761 -0.17926,-1.4396 -0.53729,-1.97457 -0.35806,-0.53492 -0.86495,-0.9029 -1.51784,-1.10144 0.51074,-0.20404 0.90006,-0.50768 1.1686,-0.92681 0.26853,-0.42467 0.40296,-0.94361 0.40297,-1.54473 -10e-6,-1.14159 -0.37772,-1.96652 -1.11488,-2.48494 -0.73191,-0.51842 -1.90856,-0.77907 -3.54611,-0.77907 l -4.56697,0 z m 12.31738,0 0,12.34422 3.04912,0 0,-4.67443 0.85967,0 c 0.49494,0 0.88715,0.1097 1.18203,0.33583 0.30013,0.22609 0.59692,0.65837 0.88653,1.27604 l 1.43725,3.06256 3.23718,0 -1.65217,-3.5058 c -0.337,-0.71146 -0.67571,-1.23757 -1.00742,-1.58501 -0.32647,-0.35297 -0.69892,-0.58577 -1.11488,-0.68506 0.75822,-0.24819 1.33204,-0.63125 1.7059,-1.15518 0.3791,-0.52392 0.56415,-1.19863 0.56416,-2.01483 -10e-6,-1.1802 -0.36139,-2.03303 -1.08802,-2.579 -0.72138,-0.54597 -1.85848,-0.81934 -3.41179,-0.81934 l -4.64756,0 z m 12.4517,0 0,12.34422 8.38173,0 0,-2.40435 -5.34604,0 0,-2.83423 4.86248,0 0,-2.40435 -4.86248,0 0,-2.29694 5.17142,0 0,-2.40435 -8.20711,0 z m -115.51742,1.12831 c 1.15839,0 2.07961,0.45218 2.75363,1.35663 0.67922,0.90445 1.02085,2.13317 1.02085,3.69389 0,1.55518 -0.34163,2.7894 -1.02085,3.69385 -0.67398,0.90446 -1.59524,1.35664 -2.75363,1.35668 -1.1584,0 -2.06909,-0.45222 -2.7536,-1.35668 -0.67926,-0.90445 -1.02089,-2.13867 -1.02085,-3.69385 0,-1.56072 0.34159,-2.78944 1.02085,-3.69389 0.68451,-0.90445 1.5952,-1.35663 2.7536,-1.35663 z m 54.629,0.24178 2.00141,0 c 0.76875,0 1.35654,0.18121 1.74619,0.5507 0.39491,0.36398 0.59102,0.91627 0.59102,1.63873 -1e-5,0.72246 -0.19611,1.26371 -0.59102,1.63874 -0.38965,0.36952 -0.97743,0.55074 -1.74619,0.55074 l -2.00141,0 0,-4.37891 z m -8.71753,0.26864 2.17602,6.15197 -4.33861,0 2.16259,-6.15197 z m 47.87256,0.52384 1.69246,0 c 0.47916,0 0.84054,0.10969 1.08802,0.33583 0.24747,0.22059 0.36265,0.54244 0.36267,0.96712 -10e-6,0.43013 -0.1152,0.75994 -0.36267,0.98053 -0.24749,0.22059 -0.60886,0.33583 -1.08802,0.33583 l -1.69246,0 0,-2.61931 z m 12.33081,0.14777 1.27607,0 c 0.63711,0 1.09627,0.12001 1.37009,0.36265 0.27906,0.24269 0.41639,0.64638 0.4164,1.20891 -10e-6,0.56806 -0.13734,0.97417 -0.4164,1.22235 -0.27382,0.24815 -0.73298,0.36265 -1.37009,0.36265 l -1.27607,0 0,-3.15656 z m -12.33081,4.63411 1.78649,0 c 0.61605,0 1.07812,0.13273 1.38352,0.40297 0.30539,0.26473 0.4567,0.66052 0.4567,1.19549 -10e-6,0.54597 -0.14605,0.96553 -0.4567,1.23577 -0.3054,0.27023 -0.77273,0.40292 -1.38352,0.40297 l -1.78649,0 0,-3.2372 z m -104.14028,10.26224 c -1.87227,0 -3.36529,0.58015 -4.45951,1.73279 -1.09427,1.14709 -1.63874,2.71348 -1.63874,4.68783 0,1.96885 0.54447,3.52183 1.63874,4.67443 1.09426,1.14709 2.58724,1.71933 4.45951,1.71933 0.62742,0 1.22265,-0.0739 1.79992,-0.22833 0.57722,-0.15444 1.13351,-0.38173 1.6656,-0.68507 l 0,-2.55213 c -0.53712,0.40259 -1.06298,0.68559 -1.58501,0.87312 -0.52203,0.1875 -1.07492,0.28206 -1.65214,0.28206 -1.03405,0 -1.839,-0.36003 -2.43126,-1.08799 -0.59231,-0.72801 -0.89994,-1.72148 -0.89994,-2.99542 -5e-5,-1.27944 0.30763,-2.29427 0.89994,-3.02223 0.59231,-0.72797 1.39721,-1.08799 2.43126,-1.08804 0.57722,0 1.13011,0.0946 1.65214,0.2821 0.52203,0.18749 1.04789,0.48391 1.58501,0.88653 l 0,-2.55213 c -0.53209,-0.30333 -1.08838,-0.53063 -1.6656,-0.68506 -0.57727,-0.1544 -1.17245,-0.24179 -1.79992,-0.24179 z m 56.84531,0 c -1.80201,0 -3.2156,0.56983 -4.2446,1.70592 -1.02398,1.13605 -1.53128,2.71276 -1.53127,4.7147 0,1.9964 0.50728,3.55179 1.53127,4.68788 1.029,1.13605 2.44258,1.70588 4.2446,1.70588 1.80701,0 3.23402,-0.56983 4.25802,-1.70588 1.02397,-1.13609 1.53128,-2.69148 1.53128,-4.68788 -10e-6,-2.0019 -0.50732,-3.57865 -1.53128,-4.7147 -1.02399,-1.13609 -2.45102,-1.70592 -4.25802,-1.70592 z m 61.78837,0 c -1.70162,0 -3.03744,0.57224 -4.01624,1.71933 -0.97881,1.14159 -1.46412,2.7159 -1.46412,4.70129 0,1.97985 0.48531,3.54075 1.46412,4.68788 0.9788,1.14159 2.31463,1.70588 4.01624,1.70588 0.66257,0 1.2882,-0.097 1.88052,-0.29551 0.59731,-0.19854 1.16038,-0.48945 1.69246,-0.88653 l 0,-1.74619 c -0.51199,0.52392 -1.05648,0.90939 -1.63873,1.16862 -0.57725,0.25919 -1.18769,0.38952 -1.84022,0.38952 -1.285,0 -2.27244,-0.42919 -2.9551,-1.2895 -0.68265,-0.86585 -1.02085,-2.10725 -1.02085,-3.73417 0,-1.63241 0.3382,-2.88727 1.02085,-3.74758 0.68265,-0.86585 1.6701,-1.28949 2.9551,-1.28949 0.65253,0 1.26296,0.11691 1.84022,0.3761 0.58225,0.25919 1.12672,0.65812 1.63873,1.18204 l 0,-1.75965 c -0.52204,-0.39153 -1.08172,-0.69349 -1.67903,-0.88653 -0.59231,-0.19854 -1.22134,-0.29551 -1.89395,-0.29551 z m -112.75035,0.22837 0,12.34423 7.97876,0 0,-2.40436 -5.09081,0 0,-2.82077 4.63411,0 0,-2.41781 -4.63411,0 0,-2.29693 4.92962,0 0,-2.40436 -7.81757,0 z m 10.53088,0 0,12.34423 2.7536,0 0,-8.46233 4.0834,8.46233 3.2372,0 0,-12.34423 -2.74018,0 0,8.47574 -4.09686,-8.47574 -3.23716,0 z m 11.57861,0 0,2.40436 3.73417,0 0,9.93987 2.90136,0 0,-9.93987 3.73417,0 0,-2.40436 -10.3697,0 z m 11.86066,0 0,12.34423 2.88796,0 0,-4.67443 0.8328,0 c 0.47182,0 0.8472,0.12311 1.12831,0.34924 0.2861,0.22613 0.55671,0.64496 0.8328,1.26263 l 1.37009,3.06256 3.08941,0 -1.57157,-3.5058 c -0.32126,-0.71146 -0.63748,-1.23757 -0.95369,-1.58501 -0.31122,-0.35298 -0.66461,-0.57236 -1.06115,-0.67161 0.7228,-0.24819 1.25548,-0.64471 1.61187,-1.16863 0.3614,-0.52392 0.55071,-1.18517 0.55073,-2.00138 -1e-5,-1.18019 -0.35502,-2.04643 -1.04772,-2.59245 -0.68768,-0.54597 -1.76986,-0.81935 -3.25061,-0.81935 l -4.41923,0 z m 27.96598,0 -4.29832,12.34423 1.59844,0 1.03428,-3.15656 5.06396,0 1.02085,3.15656 1.58501,0 -4.28489,-12.34423 -1.71933,0 z m 7.62952,0 0,12.34423 1.47755,0 0,-10.83981 2.90137,8.47573 1.53127,0 2.90137,-8.47573 0,10.83981 1.47755,0 0,-12.34423 -2.27005,0 -2.87451,8.4086 -2.8745,-8.4086 -2.27005,0 z m 13.31137,0 0,12.34423 7.25341,0 0,-1.39696 -5.72214,0 0,-4.47292 5.34604,0 0,-1.41041 -5.34604,0 0,-3.65357 5.58782,0 0,-1.41037 -7.11909,0 z m 9.76525,0 0,12.34423 1.51784,0 0,-5.21172 1.65217,0 c 0.60234,0 1.07747,0.13273 1.42382,0.40297 0.35136,0.27023 0.71657,0.82493 1.08801,1.65219 l 1.43725,3.15656 1.63874,0 -1.54471,-3.37148 c -0.31122,-0.69491 -0.62906,-1.24165 -0.94026,-1.63873 -0.3062,-0.39708 -0.61401,-0.65778 -0.94026,-0.77907 0.62743,-0.19854 1.09754,-0.5483 1.42382,-1.06117 0.33128,-0.51288 0.497,-1.15664 0.497,-1.93425 -1e-5,-1.19119 -0.30781,-2.08292 -0.94026,-2.673 -0.63247,-0.59011 -1.58951,-0.88653 -2.87451,-0.88653 l -3.43865,0 z m 10.71894,0 0,12.34423 1.51784,0 0,-12.34423 -1.51784,0 z m 18.22757,0 -4.28489,12.34423 1.59844,0 1.02085,-3.15656 5.07739,0 1.02085,3.15656 1.58501,0 -4.28489,-12.34423 -1.73276,0 z m -27.42867,1.37009 1.92081,0 c 0.73285,0 1.28072,0.18122 1.65217,0.55071 0.37646,0.36398 0.56416,0.91627 0.56416,1.63873 -10e-6,0.72246 -0.18771,1.26375 -0.56416,1.63874 -0.37145,0.36952 -0.91932,0.56415 -1.65217,0.56415 l -1.92081,0 0,-4.39233 z m -31.37775,0.26865 2.082,6.15197 -4.13713,0 2.05513,-6.15197 z m 59.66608,0 2.06857,6.15197 -4.1237,0 2.05513,-6.15197 z m -71.48646,0.44324 c 0.88844,0 1.58167,0.35767 2.06856,1.07458 0.48689,0.71696 0.72533,1.73416 0.72534,3.03569 0,1.29603 -0.23845,2.29187 -0.72534,3.00883 -0.4869,0.71696 -1.18013,1.07458 -2.06856,1.07458 -0.88344,0 -1.56825,-0.35762 -2.05514,-1.07458 -0.4869,-0.71692 -0.72535,-1.71284 -0.72534,-3.00883 -10e-6,-1.30153 0.23845,-2.31873 0.72534,-3.03569 0.48689,-0.71691 1.17169,-1.07453 2.05514,-1.07458 z m -14.10387,0.22837 1.22233,0 c 0.60735,0 1.04191,0.12001 1.30293,0.36265 0.26603,0.24269 0.40296,0.64638 0.40297,1.2089 -10e-6,0.56807 -0.13694,0.97418 -0.40297,1.22236 -0.26102,0.24814 -0.69557,0.3761 -1.30293,0.3761 l -1.22233,0 0,-3.17001 z"
           id="path18352"
           inkscape:connector-curvature="0" />
      </g>
    </g>
  </g>
</svg>
