<?xml version="1.0" encoding="UTF-8" standalone="no"?>
<!-- Created with Inkscape (http://www.inkscape.org/) -->

<svg
   xmlns:dc="http://purl.org/dc/elements/1.1/"
   xmlns:cc="http://creativecommons.org/ns#"
   xmlns:rdf="http://www.w3.org/1999/02/22-rdf-syntax-ns#"
   xmlns:svg="http://www.w3.org/2000/svg"
   xmlns="http://www.w3.org/2000/svg"
   xmlns:sodipodi="http://sodipodi.sourceforge.net/DTD/sodipodi-0.dtd"
   xmlns:inkscape="http://www.inkscape.org/namespaces/inkscape"
   width="306.40848"
   height="219.78778"
   id="svg17958"
   version="1.1"
   inkscape:version="0.48.5 r10040"
   sodipodi:docname="New document 7">
  <defs
     id="defs17960" />
  <sodipodi:namedview
     id="base"
     pagecolor="#ffffff"
     bordercolor="#666666"
     borderopacity="1.0"
     inkscape:pageopacity="0.0"
     inkscape:pageshadow="2"
     inkscape:zoom="2.293121"
     inkscape:cx="153.20424"
     inkscape:cy="109.89389"
     inkscape:document-units="px"
     inkscape:current-layer="layer1"
     showgrid="false"
     fit-margin-top="0"
     fit-margin-left="0"
     fit-margin-right="0"
     fit-margin-bottom="0"
     inkscape:window-width="1366"
     inkscape:window-height="702"
     inkscape:window-x="0"
     inkscape:window-y="27"
     inkscape:window-maximized="1" />
  <metadata
     id="metadata17963">
    <rdf:RDF>
      <cc:Work
         rdf:about="">
        <dc:format>image/svg+xml</dc:format>
        <dc:type
           rdf:resource="http://purl.org/dc/dcmitype/StillImage" />
        <dc:title></dc:title>
      </cc:Work>
    </rdf:RDF>
  </metadata>
  <g
     inkscape:label="Layer 1"
     inkscape:groupmode="layer"
     id="layer1"
     transform="translate(-383.93865,-371.03972)">
    <g
       transform="translate(4334.8517,-2411.1142)"
       id="g17765">
      <path
         transform="matrix(-0.03042317,-0.03991764,0.03193414,-0.02433854,-3701.3044,2815.0036)"
         style="fill:#ffffff;fill-opacity:1;stroke:none"
         d="m 80.34375,-7670.3125 c -27.167549,1.0602 -54.042943,8.9338 -77.4877201,22.7012 -23.4447769,13.7675 -43.4136819,33.4022 -57.5747799,56.6113 l -3262.62505,5351.0312 c -19.5228,32.0175 -27.7172,70.7907 -22.8185,107.9695 4.8986,37.1789 22.8564,72.5063 50.0061,98.3743 l 605.5312,576.875 c 22.7707,21.6932 53.1841,41.2763 87.625,52.25 l 0,0.031 c 0.3162,0.1019 0.6515,0.1809 0.9688,0.2813 0.5273,0.1652 1.0332,0.3702 1.5624,0.5313 l 0.031,-0.063 c 31.4142,9.6602 67.9425,12.5785 101.5625,6.9063 33.8878,-5.7177 65.9633,-19.9822 91.5,-37.875 l 0.031,0.031 c 0.3005,-0.2092 0.5759,-0.4458 0.875,-0.6563 0.3033,-0.2148 0.6362,-0.4092 0.9376,-0.625 l -0.031,-0.031 c 25.8058,-18.3569 46.6464,-41.6631 61.9375,-65.4062 23.8172,255.2752 133.6664,502.55736 339.4062,698.5625 135.4875,129.07684 288.758,206.69631 440.7813,232.625 -39.3798,127.13598 -95.1611,241.79694 -123.6563,266.5 -16.2293,12.96647 -26.2022,25.45189 -31.75,33.6875 -18.0433,22.76632 -50.7217,70.34241 -68.0312,136.0625 -12.4379,47.229571 -18.2835,110.987195 5.9688,178.96875 22.4942,63.05616 68.0109,115.27575 121.75,152.59375 0.055,0.038 0.1015,0.0871 0.1562,0.125 0.2183,0.17764 0.437,0.35472 0.6562,0.53125 -0.033,-0.0255 0.1255,0.087 0.094,0.0625 1.6027,1.23797 3.228,2.44658 4.875,3.625 -0.2731,-0.20044 -1.4653,-1.20285 -2.0312,-1.65625 0.7719,0.4501 23.5615,17.30623 47.3124,29.03125 27.1348,13.3955 64.3485,27.16223 110.3438,32.8125 94.9409,11.66586 219.7748,-20.64111 328.1562,-115.3125 l 0.031,0.0312 c 0.2283,-0.19603 0.4297,-0.3974 0.6563,-0.59375 0.3092,-0.27106 0.6285,-0.50917 0.9374,-0.78125 l -0.031,-0.0312 c 19.1549,-16.8124 32.0549,-34.78863 41.6875,-53.8125 2.8613,-5.753052 5.3879,-11.672611 7.5625,-17.71875 l 0.125,0.03125 c -3.1534,8.576102 2.339,-0.637392 7.6875,-25.84375 l 0.062,0.03125 c 0,0 7.9865,-36.004214 22.9062,-91.40625 23.9467,42.031979 70.5644,122.733396 123.06255,206.40625 37.45064,59.68829 76.89904,119.56459 115.59375,170.09375 0.0104,0.0104 0.0208,0.0208 0.0312,0.0312 19.27684,25.16735 38.20725,48.40841 62.53125,71.53125 l 0,0.0312 c 0.0633,0.0603 0.15513,0.12694 0.21875,0.1875 18.15913,17.28651 50.38888,45.98953 101,59.125 31.15688,11.0865 82.53729,24.93658 140.25,22.15625 49.71974,-2.39188 105.63508,-16.86204 161.90625,-45.40625 12.7029,58.55452 41.1537,111.58676 80.96875,152.875 68.67776,71.21858 182.12061,114.49492 293.09375,77.78125 l 0.0625,0.15625 c 1.1754671,-0.36709 2.37934243,-0.85123 3.5625,-1.25 132.49372,77.11563 297.98927,52.50167 409.28125,-46.25 20.88497,-14.59221 59.49389,-44.65011 86.4375,-88.15625 l 0.0312,0.0312 c 0.10841,-0.17452 0.20435,-0.35657 0.3125,-0.53125 0.0395,-0.0638 0.0856,-0.12372 0.125,-0.1875 27.89865,-45.11729 46.86254,-95.58278 56.9375,-148.96875 27.16141,-99.62683 16.28129,-189.74161 2.09375,-252.1875 33.45888,-33.6668 57.98087,-72.845345 72.53125,-109.96875 23.84967,-60.842006 28.37283,-112.535981 31.84375,-148.71875 94.48604,-44.76531 138.93158,-120.07077 170.90625,-168.84375 0.99348,-1.50489 1.9624,-3.026 2.90625,-4.5625 16.64622,-27.30123 17.15441,-29.95364 3.21875,-5.90625 3.28007,-5.66299 6.22444,-11.5204 8.8125,-17.53125 35.62649,-82.70985 31.44735,-168.36198 23.375,-227.125 -0.70058,-28.43161 -3.9845,-55.83962 -9.53125,-82.03125 -0.0311,-0.12504 -0.0623,-0.25004 -0.0937,-0.375 -23.183,-108.26342 -80.99153,-205.72283 -179.6875,-266.6875 l 0.0312,-0.0625 c -1.32623,-0.86725 -2.7739,-1.67449 -4.125,-2.53125 -0.77577,-0.4657 -1.50052,-0.97627 -2.28125,-1.4375 l -0.0312,0.0312 c -3.52267,-2.19455 -7.02775,-4.39232 -10.71875,-6.5 -0.16884,-0.33004 -0.36694,-0.60181 -0.53125,-0.9375 -9.37187,-19.14666 -21.112,-47.1935 -35.6875,-77.25 -16.38231,-33.77975 -40.83424,-84.50495 -103.125,-126.03125 l 0,0.031 c -24.45996,-16.3112 -52.8745,-26.7909 -82.40625,-32.25 22.95966,-13.7365 42.50994,-33.1244 56.4375,-55.9687 l 251.46875,-412.4687 c 17.22696,-28.2466 25.71877,-61.739 24.03125,-94.7813 l -35.59375,-692.2187 c 81.31516,12.5856 162.54581,10.1368 240.6875,-7.6876 223.0948,-50.8884 407.851,-210.4653 537.4374,-423 178.2823,-292.4006 234.9826,-665.3474 120.5938,-995.8124 69.5348,8.9614 139.3867,6.579 207.7501,-7.9063 221.7772,-46.9919 409.8705,-207.0575 548.3749,-434.2187 269.9229,-442.7009 255.2036,-1025.7439 -135.3438,-1397.8126 -17.849,-16.9988 -39.5389,-29.9413 -62.9747,-37.5776 -23.4357,-7.6363 -48.5868,-9.9563 -73.024,-6.736 -24.4373,3.2203 -48.1287,11.9767 -68.7862,25.4235 -20.6575,13.4468 -38.254,31.5665 -51.09,52.6089 l -251.5001,412.4688 c -19.5227,32.0175 -27.7171,70.7907 -22.8185,107.9695 4.8987,37.1788 22.8565,72.5062 50.0062,98.3742 61.1452,58.2523 74.7834,102.396 76.9686,147.4375 19.7465,73.4717 -82.8141,255.1473 -177.8749,166.2188 -56.1424,-53.4859 -71.7733,-89.765 -97.9064,-234.7188 l -269.4373,-1589.5 c -5.9283,-34.9577 -23.4234,-67.8542 -49.0939,-92.3125 L 201.15625,-7624.7188 c -16.01012,-15.2437 -35.10232,-27.2368 -55.78492,-35.0423 -20.6826,-7.8054 -42.93807,-11.4166 -65.02758,-10.5514 z m 413.75,7106.5 c 0.96209,0.0217 1.44229,1.2045 0.8125,0.96875 -0.30885,-0.0923 -0.43666,-0.1893 -0.6875,-0.28125 -0.0496,-0.17537 -0.079,-0.48249 -0.125,-0.6875 z m 56.0625,463.4375 c 0.57434,0.0483 1.17315,0.0203 1.75,0.0625 -0.41436,-0.0217 -1.5324,-0.0129 -1.75,-0.0312 z M 533.625,48.5625 c 0.34305,0.152791 0.72308,2.509784 0.875,7.375 -0.23609,-0.939563 -0.96765,-3.447985 -1.125,-4.125 -0.37748,-1.62419 -0.13165,-3.419985 0.25,-3.25 z M 453.8125,202.25 c -9.99954,4.9994 -17.98275,6.60366 -24.90625,8.15625 13.01054,-3.17708 20.42041,-6.18371 24.90625,-8.15625 z M 37.5,652.84375 c 0.02083,0.0312 -0.333333,0.26042 -0.53125,0.34375 0.179476,-0.11117 0.352173,-0.2319 0.53125,-0.34375 z"
         id="path17770"
         inkscape:connector-curvature="0"
         sodipodi:nodetypes="csccscccccccsccccccscccccccccccscccccccccccccccccccccsccccccsccccccccccccccccccsccccscccsscsscssscsscccccccscccccccccscsscccccc" />
      <g
         id="g17772"
         transform="matrix(0.78866325,0,0,0.78866325,-1673.3632,423.5588)">
        <path
           id="path17774"
           d="m -2558.1864,3051.9923 -26.0854,0.2131 a 0.82120036,0.82120036 0 0 0 -0.2664,0.035 l -31.2703,10.353 a 0.82120036,0.82120036 0 0 0 -0.5327,0.9942 l 3.9775,14.2945 0,0.035 0.9766,13.3179 0,0.072 -0.3905,19.6392 a 0.82120036,0.82120036 0 0 0 0.2663,0.6392 l 13.7441,12.1462 a 0.82120036,0.82120036 0 0 0 0.6037,0.1951 l 31.2528,-2.1839 a 0.82120036,0.82120036 0 0 0 0.4793,-0.1955 l 7.3693,-6.1796 a 0.82120036,0.82120036 0 0 0 0.2663,-0.8166 l -2.7523,-11.7729 2.7523,-12.1459 a 0.82120036,0.82120036 0 0 0 0.017,-0.1065 l 1.7935,-21.6993 a 0.82120036,0.82120036 0 0 0 0,-0.143 l -1.3851,-15.9459 a 0.82120036,0.82120036 0 0 0 -0.8168,-0.7457 z"
           style="fill:#111111;fill-opacity:1;stroke:none"
           inkscape:connector-curvature="0" />
        <path
           inkscape:connector-curvature="0"
           id="path17778"
           d="m -2615.545,3063.3695 3.983,14.3389 0.9957,13.5422 -0.3983,19.716 13.7414,12.1482 31.2668,-2.1908 7.3684,-6.1737 -2.788,-11.949 2.788,-12.3472 1.7925,-21.7073 -1.3941,-15.9322 -26.0888,0.1992 z"
           style="fill:#aad400;fill-opacity:1;stroke:none" />
        <path
           style="fill:#111111;fill-opacity:1;stroke:none"
           d="m -2742.4724,3052.7561 c -23.5592,0 -44.0938,15.4412 -44.0938,43.0626 l 0,60.9374 c 0,27.6211 20.5346,43.0313 44.0938,43.0313 23.5592,0 43.8749,-15.4103 43.875,-43.0313 l 0,-60.9374 c 0,-27.6213 -20.3157,-43.0626 -43.875,-43.0626 z m -13.4376,38.3438 c 1.7652,10e-5 3.6051,0.089 5.4376,0.3125 1.8322,0.2242 3.7085,0.5833 5.625,1.0313 l 0,3.4687 c -1.9333,-0.6485 -3.7854,-1.1191 -5.5,-1.4375 -1.7148,-0.3182 -3.3718,-0.5 -4.9688,-0.5 -2.7737,0 -4.8933,0.4017 -6.4062,1.1562 -1.4962,0.7546 -2.2813,1.8278 -2.2813,3.2188 0,1.1673 0.5082,2.055 1.5,2.6562 1.0086,0.5896 2.9282,1.0721 5.7187,1.4376 l 3.0626,0.4374 c 3.7991,0.5072 6.5762,1.4024 8.375,2.6876 1.8154,1.2731 2.75,2.9482 2.75,5.0937 -10e-5,2.5583 -1.2332,4.5235 -3.6876,5.8437 -2.4374,1.3204 -6.0262,1.9688 -10.75,1.9688 -1.7818,0 -3.6702,-0.1235 -5.6874,-0.4062 -2.0005,-0.2831 -4.0984,-0.6958 -6.25,-1.25 l 0.031,-3.7188 c 2.0677,0.8135 4.0788,1.4625 6.0625,1.875 1.9836,0.4126 3.9272,0.625 5.8437,0.625 2.9081,0 5.1386,-0.4172 6.7188,-1.2188 1.5801,-0.8016 2.375,-1.9522 2.375,-3.4374 0,-1.2968 -0.5444,-2.3005 -1.6875,-3.0313 -1.1263,-0.731 -3.005,-1.2908 -5.5937,-1.6563 l -3.0936,-0.4062 c -3.7992,-0.5304 -6.5522,-1.3681 -8.25,-2.5 -1.6979,-1.1315 -2.5312,-2.7027 -2.5312,-4.7188 0,-2.334 1.1633,-4.1872 3.5,-5.5312 2.3533,-1.3438 5.5688,-1.9999 9.6874,-2 z m 24.1563,0.031 -0.125,21.9688 15.5625,0 0,5.4375 -24.4375,0 0,-27.2813 9,-0.125 z m -20.5313,28.2188 c 1.6704,0 3.3071,0.1697 4.8438,0.5 1.5369,0.3301 2.9897,0.7892 4.4062,1.4375 l 0,5.5 c -1.4299,-0.8604 -2.8603,-1.5055 -4.25,-1.9063 -1.3898,-0.4007 -2.8382,-0.5937 -4.375,-0.5937 -2.7528,0 -4.8919,0.7562 -6.4687,2.3125 -1.5768,1.5559 -2.375,3.7337 -2.375,6.4688 0,2.7232 0.7982,4.8189 2.375,6.375 1.5768,1.556 3.7159,2.375 6.4687,2.375 1.5367,-10e-5 2.9852,-0.1929 4.375,-0.5938 1.3897,-0.4007 2.8201,-1.0455 4.25,-1.9062 l 0,5.4687 c -1.4164,0.6483 -2.8693,1.1386 -4.4062,1.4687 -1.5367,0.3301 -3.1734,0.5 -4.8438,0.5 -4.9844,10e-5 -8.9305,-1.2354 -11.8437,-3.6874 -2.9132,-2.464 -4.375,-5.7915 -4.375,-10 0,-4.2206 1.4618,-7.5793 4.375,-10.0313 2.9132,-2.4638 6.8593,-3.6875 11.8437,-3.6875 z m 22.375,0.625 4.0938,0 10.25,26.375 -3.7812,0 -2.4376,-6.7812 -12.125,0 -2.4374,6.7812 -3.8126,0 10.25,-26.375 z m 2.0313,3.5 -4.9375,13.125 9.9062,0 -4.9687,-13.125 z m -39.375,26.6875 c 0.1084,-0.017 0.2222,0 0.3437,0 0.2084,0 0.44,0.023 0.6563,0.062 0.2164,0.039 0.4299,0.1085 0.6563,0.1875 l 0,0.5937 c -0.2282,-0.1133 -0.4538,-0.1939 -0.6563,-0.25 -0.2024,-0.055 -0.374,-0.094 -0.5625,-0.094 -0.3275,0 -0.6026,0.055 -0.7812,0.1875 -0.1779,0.133 -0.2813,0.3484 -0.2813,0.5938 -10e-5,0.2059 0.071,0.331 0.1875,0.4374 0.1192,0.1035 0.3581,0.2163 0.6875,0.2813 l 0.3437,0.062 c 0.4486,0.089 0.7878,0.242 1,0.4688 0.2143,0.2241 0.3126,0.5592 0.3126,0.9374 -10e-5,0.4511 -0.1477,0.7672 -0.4376,1 -0.2877,0.2325 -0.6923,0.375 -1.25,0.375 -0.2104,0 -0.4493,-0.044 -0.6874,-0.094 -0.2363,-0.049 -0.4959,-0.1217 -0.75,-0.2187 l 0,-0.6563 c 0.2439,0.1434 0.5157,0.2395 0.75,0.3125 0.2341,0.074 0.4611,0.125 0.6874,0.125 0.3433,0 0.5948,-0.046 0.7813,-0.1875 0.1865,-0.1414 0.2813,-0.3632 0.2813,-0.625 0,-0.2287 -0.053,-0.4019 -0.1876,-0.5313 -0.133,-0.1288 -0.3506,-0.2474 -0.6562,-0.3124 l -0.375,-0.063 c -0.4484,-0.093 -0.7682,-0.2379 -0.9688,-0.4374 -0.2006,-0.1996 -0.3124,-0.4883 -0.3124,-0.8438 -10e-5,-0.4114 0.1619,-0.7004 0.4374,-0.9375 0.2085,-0.1776 0.4562,-0.332 0.7813,-0.375 z m 4.6563,0 c 0.6231,0 1.1268,0.2177 1.5,0.6563 0.3729,0.4363 0.5624,1.014 0.5624,1.75 10e-5,0.7337 -0.1895,1.3426 -0.5624,1.7812 -0.3732,0.4366 -0.8769,0.6562 -1.5,0.6562 -0.6251,0 -1.125,-0.2196 -1.5,-0.6562 -0.373,-0.4363 -0.5626,-1.0455 -0.5626,-1.7812 0,-0.7361 0.1894,-1.3138 0.5626,-1.75 0.375,-0.4386 0.875,-0.6563 1.5,-0.6563 z m 3,0.062 2.5624,0 0,0.5312 -1.9687,0 0,1.375 1.75,0 0,0.5313 -1.75,0 0,2.25 -0.5937,0 0,-4.6875 z m 2.7812,0 3.7812,0 0,0.5312 -1.5937,0 0,4.1563 -0.625,0 0,-4.1563 -1.5625,0 0,-0.5312 z m 3.9375,0 0.625,0 0.9375,3.9688 0.9062,-3.9688 0.6876,0 0.9374,3.9688 0.9376,-3.9688 0.5937,0 -1.0937,4.6875 -0.7813,0 -0.9063,-4.0625 -0.9687,4.0625 -0.75,0 -1.125,-4.6875 z m 7.25,0 0.6875,0 1.6875,4.6875 -0.625,0 -0.4063,-1.1875 -2,0 -0.4062,1.1875 -0.625,0 1.6875,-4.6875 z m 3.0313,0 1.3437,0 c 0.508,0 0.875,0.1527 1.125,0.375 0.2501,0.2224 0.375,0.5511 0.375,1 0,0.293 -0.056,0.5253 -0.1875,0.7188 -0.1289,0.1931 -0.2832,0.3 -0.5312,0.375 0.1289,0.046 0.2226,0.1633 0.3437,0.3124 0.123,0.1497 0.2519,0.363 0.375,0.625 l 0.5937,1.2813 -0.625,0 -0.5937,-1.1875 c -0.1467,-0.3117 -0.2674,-0.5246 -0.4063,-0.625 -0.1369,-0.1002 -0.3244,-0.1562 -0.5624,-0.1562 l -0.6563,0 0,1.9687 -0.5937,0 0,-4.6875 z m 4.2187,0 2.8437,0 0,0.5312 -2.25,0 0,1.4063 2.125,0 0,0.5 -2.125,0 0,1.7187 2.2813,0 0,0.5313 -2.875,0 0,-4.6875 z m 3.8125,0 1.1562,0 0,3.75 2.0313,0 0,0.9375 -3.1875,0 0,-4.6875 z m 3.9062,0 1.125,0 0,4.6875 -1.125,0 0,-4.6875 z m 2.25,0 1.75,0 c 0.6171,0 1.0365,0.1174 1.3126,0.3125 0.2778,0.1954 0.4374,0.5073 0.4374,0.9375 0,0.2265 -0.055,0.4016 -0.1562,0.5625 -0.1011,0.158 -0.2451,0.299 -0.4375,0.375 0.246,0.075 0.4275,0.2045 0.5625,0.4063 0.1353,0.2015 0.1875,0.4569 0.1875,0.75 0,0.4487 -0.1166,0.7797 -0.4063,1 -0.2896,0.2209 -0.7524,0.3437 -1.3437,0.3437 l -1.9063,0 0,-4.6875 z m 4.6563,0 1.75,0 c 0.5855,0 1.0094,0.1379 1.2813,0.3438 0.2738,0.2056 0.4062,0.5238 0.4062,0.9687 1e-4,0.3076 -0.044,0.5526 -0.1875,0.75 -0.1409,0.1976 -0.3704,0.3445 -0.6563,0.4375 0.1568,0.037 0.2832,0.1176 0.4063,0.25 0.1249,0.131 0.248,0.3257 0.375,0.5938 l 0.625,1.3437 -1.2187,0 -0.5313,-1.1563 c -0.1092,-0.2328 -0.1994,-0.416 -0.3125,-0.5 -0.1111,-0.085 -0.2822,-0.125 -0.4688,-0.125 l -0.3124,0 0,1.7813 -1.1563,0 0,-4.6875 z m 4.6875,0 3.0938,0 0,0.9375 -1.9376,0 0,0.8437 1.8438,0 0,0.9063 -1.8438,0 0,1.0625 2,0 0,0.9375 -3.1562,0 0,-4.6875 z m -43.5312,0.4375 c -0.4367,-2e-4 -0.7733,0.1905 -1.0313,0.5313 -0.256,0.3411 -0.4063,0.7867 -0.4063,1.375 0,0.586 0.1504,1.0653 0.4063,1.4062 0.258,0.3402 0.5947,0.5 1.0313,0.5 0.4365,0 0.7771,-0.1592 1.0312,-0.5 0.2561,-0.3409 0.4062,-0.8202 0.4062,-1.4062 10e-5,-0.5881 -0.1501,-1.0339 -0.4062,-1.375 -0.254,-0.3417 -0.5947,-0.5313 -1.0312,-0.5313 z m 20.5937,0.094 0,1.6563 0.75,0 c 0.2897,0 0.5093,-0.08 0.6563,-0.2187 0.1481,-0.1416 0.2187,-0.3216 0.2187,-0.5938 -10e-5,-0.2723 -0.07,-0.4865 -0.2187,-0.625 -0.1469,-0.138 -0.3666,-0.2188 -0.6563,-0.2188 l -0.75,0 z m -3.3125,0.094 -0.7812,2.3125 1.625,0 -0.8438,-2.3123 z m 18.0625,0.2188 0,0.9687 0.625,0 c 0.1806,0 0.3445,-0.01 0.4375,-0.094 0.094,-0.083 0.125,-0.2438 0.125,-0.4063 0,-0.1601 -0.032,-0.2598 -0.125,-0.3437 -0.093,-0.085 -0.2568,-0.125 -0.4375,-0.125 l -0.625,0 z m 4.6563,0.062 0,1.1876 0.4687,0 c 0.2402,0 0.3968,-0.063 0.5,-0.1563 0.1057,-0.093 0.1875,-0.2234 0.1875,-0.4375 0,-0.212 -0.082,-0.3778 -0.1875,-0.4688 -0.1032,-0.09 -0.2598,-0.125 -0.5,-0.125 l -0.4687,0 z m -4.6563,1.7188 0,1.2188 0.6563,0 c 0.23,0 0.4474,-0.056 0.5624,-0.1563 0.1167,-0.1018 0.1563,-0.2317 0.1563,-0.4375 0,-0.2013 -0.041,-0.3385 -0.1563,-0.4375 -0.1151,-0.1027 -0.3304,-0.1875 -0.5624,-0.1875 l -0.6563,0 z m -39.25,3.875 c 0.2366,0 0.4699,0.036 0.6875,0.094 0.2175,0.058 0.4245,0.1358 0.625,0.25 l 0,0.9687 c -0.2023,-0.1518 -0.397,-0.2717 -0.5938,-0.3437 -0.1966,-0.072 -0.4074,-0.094 -0.625,-0.094 -0.3896,0 -0.683,0.1319 -0.9062,0.4062 -0.2233,0.2744 -0.3438,0.6741 -0.3438,1.1563 0,0.48 0.1206,0.8506 0.3438,1.125 0.2232,0.2744 0.5166,0.375 0.9062,0.375 0.2177,0 0.4285,0.01 0.625,-0.062 0.1968,-0.071 0.3914,-0.1932 0.5938,-0.3438 l 0,0.9688 c -0.2005,0.1135 -0.4075,0.192 -0.625,0.25 -0.2176,0.058 -0.4509,0.094 -0.6875,0.094 -0.7056,2e-4 -1.2751,-0.2241 -1.6875,-0.6563 -0.4124,-0.4346 -0.5938,-1.0081 -0.5938,-1.75 0,-0.744 0.1814,-1.349 0.5938,-1.7813 0.4124,-0.4344 0.982,-0.6562 1.6875,-0.6562 z m 21.4375,0 c 0.6811,0 1.2078,0.2279 1.5938,0.6562 0.3859,0.4282 0.5624,1.0268 0.5624,1.7813 0,0.7524 -0.1766,1.3219 -0.5624,1.75 -0.3861,0.4281 -0.9127,0.6563 -1.5938,0.6563 -0.6791,0 -1.206,-0.2282 -1.5938,-0.6563 -0.3858,-0.4283 -0.5937,-0.9976 -0.5937,-1.75 0,-0.7545 0.2079,-1.3531 0.5937,-1.7813 0.3878,-0.4283 0.9147,-0.6562 1.5938,-0.6562 z m 23.2812,0 c 0.2536,0 0.4956,0.05 0.7188,0.125 0.2251,0.073 0.4283,0.1649 0.625,0.3125 l 0,0.6875 c -0.1929,-0.1975 -0.3743,-0.3405 -0.5938,-0.4375 -0.2176,-0.099 -0.4727,-0.1563 -0.7187,-0.1563 -0.4843,0 -0.8678,0.1424 -1.125,0.4688 -0.2575,0.324 -0.375,0.8224 -0.375,1.4375 0,0.6132 0.1176,1.0799 0.375,1.4063 0.2572,0.3236 0.6407,0.4687 1.125,0.4687 0.246,0 0.5012,-0.059 0.7187,-0.1563 0.2195,-0.098 0.4009,-0.2088 0.5938,-0.4062 l 0,0.6562 c -0.2005,0.1498 -0.3999,0.2376 -0.625,0.3126 -0.2232,0.077 -0.4689,0.125 -0.7188,0.125 -0.6411,0 -1.1624,-0.2261 -1.5312,-0.6563 -0.3689,-0.4324 -0.5312,-1.004 -0.5312,-1.75 0,-0.7483 0.1623,-1.3513 0.5312,-1.7813 0.3688,-0.4324 0.89,-0.6562 1.5312,-0.6562 z m -42.5,0.094 2.9376,0 0,0.9062 -1.8438,0 0,0.875 1.75,0 0,0.875 -1.75,0 0,1.0938 1.9062,0 0,0.9062 -3,0 0,-4.6562 z m 3.9688,0 1.2188,0 1.5624,3.2187 0,-3.2187 1,0 0,4.6562 -1.2187,0 -1.5,-3.2188 0,3.2188 -1.0625,0 0,-4.6562 z m 4.3438,0 3.9374,0 0,0.9062 -1.4374,0 0,3.75 -1.0626,0 0,-3.75 -1.4374,0 0,-0.9062 z m 4.5,0 1.6562,0 c 0.558,-10e-5 0.9908,0.1069 1.25,0.3124 0.261,0.206 0.375,0.5238 0.375,0.9688 0,0.3074 -0.082,0.5527 -0.2188,0.75 -0.1342,0.1974 -0.3212,0.3758 -0.5937,0.4688 0.1495,0.038 0.289,0.086 0.4063,0.2187 0.119,0.1309 0.2226,0.3254 0.3437,0.5937 l 0.5937,1.3438 -1.1562,0 -0.5,-1.1562 c -0.1041,-0.233 -0.2361,-0.3818 -0.3438,-0.4688 -0.106,-0.087 -0.2285,-0.1562 -0.4062,-0.1562 l -0.3438,0 0,1.7812 -1.0624,0 0,-4.6562 z m 10.5312,0 0.625,0 1.6562,4.6562 -0.5937,0 -0.4063,-1.1875 -1.9062,0 -0.375,1.1875 -0.625,0 1.625,-4.6562 z m 2.875,0 0.8438,0 1.0937,3.1874 1.0937,-3.1874 0.875,0 0,4.6562 -0.5937,0 0,-4.0938 -1.0937,3.2188 -0.5626,0 -1.0937,-3.2188 0,4.0938 -0.5625,0 0,-4.6562 z m 5.0312,0 2.6563,0 0,0.5312 -2.0937,0 0,1.375 2.0312,0 0,0.5312 -2.0312,0 0,1.6876 2.1562,0 0,0.5312 -2.7188,0 0,-4.6562 z m 3.6876,0 1.2812,0 c 0.4843,0 0.8241,0.09 1.0625,0.3124 0.2384,0.2226 0.3437,0.5823 0.3437,1.0313 10e-5,0.2931 -0.031,0.5255 -0.1562,0.7187 -0.1229,0.1933 -0.2948,0.3313 -0.5312,0.4063 0.123,0.046 0.2282,0.1321 0.3437,0.2813 0.1172,0.1496 0.2265,0.3629 0.3437,0.625 l 0.5938,1.2812 -0.5938,0 -0.5937,-1.1875 c -0.14,-0.3117 -0.2426,-0.5246 -0.375,-0.625 -0.1306,-0.1001 -0.3044,-0.1563 -0.5313,-0.1563 l -0.625,0 0,1.9688 -0.5624,0 0,-4.6562 z m 4,0 0.5624,0 0,4.6562 -0.5624,0 0,-4.6562 z m 6.875,0 0.6562,0 1.625,4.6562 -0.5938,0 -0.4062,-1.1875 -1.9062,0 -0.375,1.1875 -0.5938,0 1.5938,-4.6562 z m -10.3126,0.5312 0,1.625 0.7188,0 c 0.2761,0 0.4851,-0.048 0.625,-0.1875 0.1424,-0.1413 0.1875,-0.3529 0.1875,-0.625 0,-0.2723 -0.045,-0.4865 -0.1875,-0.625 -0.1399,-0.1383 -0.3489,-0.1875 -0.625,-0.1875 l -0.7188,0 z m -11.8437,0.094 -0.7813,2.3124 1.5938,0 -0.8125,-2.3124 z m 22.5,0 -0.7813,2.3124 1.5626,0 -0.7813,-2.3124 z m -27.1875,0.1562 c -0.2217,0.05 -0.3935,0.2038 -0.5312,0.4062 -0.184,0.2704 -0.25,0.6658 -0.25,1.1563 0,0.4885 0.067,0.8549 0.25,1.125 0.1835,0.2714 0.4482,0.4063 0.7812,0.4063 0.3349,-2e-4 0.5979,-0.136 0.7812,-0.4063 0.1838,-0.2701 0.25,-0.6365 0.25,-1.125 10e-5,-0.4905 -0.066,-0.8859 -0.25,-1.1563 -0.1834,-0.2711 -0.4463,-0.4062 -0.7812,-0.4062 -0.083,0 -0.176,-0.017 -0.25,0 z m -5.0938,0.094 0,1.1874 0.5,0 c 0.2289,0 0.3708,-0.032 0.4688,-0.125 0.1,-0.093 0.1562,-0.2858 0.1562,-0.5 10e-5,-0.2119 -0.056,-0.3465 -0.1562,-0.4374 -0.098,-0.092 -0.2399,-0.125 -0.4688,-0.125 l -0.5,0 z"
           id="path17782"
           inkscape:connector-curvature="0" />
        <path
           d="m -2790.6487,3198.5804 0,-23.7626 -55.8517,0 40.4163,-46.9152 c 9.9518,-11.5767 15.4354,-19.0914 15.4354,-33.105 0,-25.9965 -18.2787,-42.0411 -43.869,-42.0411 -24.7778,0 -44.0721,15.8414 -44.0721,42.2442 l 26.4027,0 c 0,-14.0137 8.9362,-18.4819 17.6694,-18.4819 11.1704,0 17.4665,7.3115 17.4665,18.0757 0,6.7023 -2.2341,11.1703 -7.5147,17.4663 l -54.0239,62.757 0,23.7626 87.9411,0"
           style="font-size:357.42126465px;font-style:normal;font-variant:normal;font-weight:bold;font-stretch:normal;text-align:start;line-height:125%;letter-spacing:0px;word-spacing:0px;writing-mode:lr-tb;text-anchor:start;fill:#111111;fill-opacity:1;stroke:none;font-family:DINOT;-inkscape-font-specification:DINOT Bold"
           id="path17786"
           inkscape:connector-curvature="0" />
        <path
           d="m -2637.193,3198.5804 0,-144.6054 -26.4027,0 -29.4491,25.5903 0,28.4335 29.4491,-25.5902 0,116.1718 26.4027,0"
           style="font-size:357.42126465px;font-style:normal;font-variant:normal;font-weight:bold;font-stretch:normal;text-align:start;line-height:125%;letter-spacing:0px;word-spacing:0px;writing-mode:lr-tb;text-anchor:start;fill:#111111;fill-opacity:1;stroke:none;font-family:DINOT;-inkscape-font-specification:DINOT Bold"
           id="path17790"
           inkscape:connector-curvature="0" />
        <path
           sodipodi:nodetypes="csssc"
           inkscape:connector-curvature="0"
           id="path17792"
           d="m -2559.0711,3094.0133 c 0,12.5727 -9.8822,22.9641 -23.178,22.9641 -13.2959,0 -24.4725,-10.9887 -24.4725,-23.5616 0,-12.5726 11.575,-20.4746 24.4725,-21.9682 13.1664,-1.5249 23.4182,9.8327 23.4765,22.3662"
           style="fill:#edf1e4;fill-opacity:1;stroke:none" />
        <path
           inkscape:connector-curvature="0"
           id="path17794"
           d="m -2606.6828,3093.3417 c 0,0 0.9957,-15.1355 1.0953,-15.5336 0.1,-0.3984 -3.1864,-10.6547 -3.1864,-10.6547 l 0.1,-2.6886 16.1313,-3.2858 19.1185,-1.7923 11.8494,0.896 -0.4979,13.2435 0.1,7.1695 -2.9873,13.1439 -5.9744,5.1779 z"
           style="fill:#ffffff;stroke:none" />
        <path
           style="fill:#111111;fill-opacity:1;fill-rule:evenodd;stroke:none"
           d="m -2558.1846,3034.6328 a 0.93422295,0.93422295 0 0 0 -0.053,0.017 l -57.9595,6.9429 a 0.93422295,0.93422295 0 0 0 -0.8169,0.9944 l 1.8823,23.4219 a 0.93422295,0.93422295 0 0 0 1.1009,0.8524 l 56.1306,-10.4058 c 2.662,0.2473 5.708,1.7233 8.0617,2.9475 0,0 0.1558,0.075 0.515,0.4441 0.3593,0.3692 0.847,0.9871 1.2607,2.0066 0.8277,2.0388 1.3876,5.684 -0.089,11.9149 0,0 -0.6226,2.5614 -2.1841,4.6525 -0.7807,1.0456 -1.7689,1.9378 -3.0009,2.3972 -1.2116,0.4517 -2.6951,0.5057 -4.6347,-0.2309 -0.2731,-0.183 -8.8395,-5.9774 -11.5954,-14.3124 0.2336,-1.3448 0.135,-2.7142 -0.515,-3.8888 -0.7882,-1.4246 -2.2184,-2.2623 -3.7467,-2.3793 -1.5284,-0.1172 -3.1634,0.429 -4.5992,1.5627 -2.8712,2.2665 -4.1151,6.1546 -2.5393,9.0027 1.1125,2.0109 3.4467,2.7184 5.6646,2.1488 2.9055,0.9183 7.3302,3.599 11.0805,11.7374 -0.045,0.3018 -0.2503,1.4328 -1.4028,2.0953 -0.6558,0.3769 -1.6794,0.6217 -3.3738,0.2665 -1.6362,-0.3431 -3.9189,-1.3066 -6.8899,-3.1788 -0.4413,-1.646 -1.4269,-3.0536 -2.9833,-3.5158 -1.3489,-0.4004 -2.7405,0.047 -3.8,0.9589 -1.0595,0.9127 -1.8585,2.2813 -2.2374,3.9067 -0.379,1.6255 -0.282,3.2367 0.2308,4.5813 0.5129,1.3445 1.4764,2.4588 2.8235,2.8589 1.5391,0.4569 3.0797,-0.2139 4.2083,-1.4028 3.0588,-0.1857 9.1758,-0.1065 15.1471,2.6103 a 0.93422295,0.93422295 0 0 0 0.4617,0.071 c 0,0 0.057,0.021 0.089,0.035 0.032,0.017 0.015,-0.1156 0.035,0.1592 0.04,0.5424 -0.6511,2.8181 -4.2972,7.4581 -1.6456,0.4218 -2.9946,1.6495 -3.2318,3.3915 -0.3647,2.6791 1.7187,5.2247 4.5458,5.9843 1.415,0.3801 2.8213,0.2422 3.9421,-0.3552 1.1209,-0.5975 1.9485,-1.6971 2.1309,-3.0365 0.1408,-1.0345 -0.1587,-2.0343 -0.6571,-2.93 -0.059,-3.4802 0.7636,-7.3392 2.0244,-9.9439 0.6377,-1.3175 1.392,-2.2988 2.0598,-2.7703 0.6678,-0.4711 1.115,-0.5284 1.7935,-0.143 a 0.93422295,0.93422295 0 0 0 0.4439,0.1248 c 0,0 2.4079,0.049 5.1318,-0.675 2.724,-0.7233 5.9257,-2.2702 7.2094,-5.5935 a 0.93422295,0.93422295 0 0 0 0.017,-0.053 c 0,0 2.1831,-6.8031 4.0486,-13.9749 0.9328,-3.5858 1.7841,-7.268 2.2552,-10.2636 0.2355,-1.4979 0.3749,-2.8124 0.3729,-3.9065 0,-0.9183 -0.1034,-1.6704 -0.4972,-2.3263 l 0.018,0 c 0,0 -0.5792,-2.2854 -2.6636,-4.8122 -2.0844,-2.5269 -5.7165,-5.3527 -11.7553,-6.6767 a 0.93422295,0.93422295 0 0 0 -0.089,-0.017 c 0,0 -4.4463,-0.5323 -7.7599,-5.1141 l -0.3374,-2.8055 a 0.93422295,0.93422295 0 0 0 -0.9766,-0.8348 z"
           id="path17796"
           inkscape:connector-curvature="0" />
        <path
           inkscape:export-ydpi="90"
           inkscape:export-xdpi="90"
           inkscape:export-filename="/home/phm/SVG/logo_web.png"
           sodipodi:nodetypes="ccccc"
           id="path17798"
           d="m -2616.0866,3042.5152 57.9638,-6.9424 2.3372,19.526 -58.4312,10.8477 -1.8698,-23.4313 z"
           style="fill:#aad400;fill-opacity:1;stroke:none"
           inkscape:connector-curvature="0" />
        <path
           sodipodi:nodetypes="cccccccccc"
           inkscape:connector-curvature="0"
           id="path17800"
           d="m -2615.1467,3063.8673 0.4979,3.1865 1.8919,0.8963 3.7838,-1.693 4.481,-0.9956 9.0613,-1.6928 13.9405,-2.589 4.9788,-2.4893 -20.8112,0.7966 z"
           style="fill:#aad400;fill-opacity:1;stroke:none" />
        <path
           inkscape:connector-curvature="0"
           id="path17802"
           d="m -2608.5213,3066.9 -3.3797,-9.7167 0.1408,-11.4064 15.0679,2.9573 14.2229,0 16.8985,-8.3085 2.6755,9.1533 0.4225,10.7025 -7.3226,3.6613 -32.8113,3.5204 z"
           style="fill:#ffffff;stroke:none" />
        <g
           style="font-size:203.09735107px;font-style:normal;font-weight:normal;line-height:125%;letter-spacing:0px;word-spacing:0px;fill:#111111;fill-opacity:1;stroke:none;font-family:Sans"
           id="text17804">
          <path
             d="m -2536.0619,3156.1063 c 0,-26.8088 -18.4819,-42.8535 -37.9792,-42.8535 -3.4527,0 -7.3116,0.4062 -10.7642,1.8278 l 30.0584,-59.7106 -28.8398,0 -30.4646,62.554 c -6.4991,13.2013 -12.1859,25.3872 -12.1859,38.5885 0,28.6367 19.4974,44.6814 45.0876,44.6814 25.5903,0 45.0877,-16.654 45.0877,-45.0876 m -26.4027,0.2031 c 0,13.4044 -7.9208,21.1221 -18.685,21.1221 -10.7641,0 -18.6849,-7.7177 -18.6849,-21.1221 0,-13.4044 7.9208,-21.1221 18.6849,-21.1221 11.1704,0 18.685,8.327 18.685,21.1221"
             style="font-variant:normal;font-weight:bold;font-stretch:normal;text-align:start;line-height:125%;writing-mode:lr-tb;text-anchor:start;fill:#111111;font-family:DINOT;-inkscape-font-specification:DINOT Bold"
             id="path18086"
             inkscape:connector-curvature="0" />
        </g>
        <path
           style="fill:#111111;fill-opacity:1;stroke:none"
           d="m -2566.9034,3000.4503 c -1.8284,-0.017 -3.6743,0.3789 -5.4159,1.2075 -4.8117,1.4568 -7.1389,4.9809 -8.7011,7.4404 -0.7888,1.2417 -1.4529,2.1962 -1.8646,2.468 -0.2057,0.1354 -0.2889,0.1461 -0.4794,0.1065 -0.1905,-0.04 -0.5518,-0.206 -1.0299,-0.6393 -0.023,-0.02 -0.047,-0.037 -0.072,-0.053 -2.2873,-1.6503 -4.5922,-1.9687 -6.6412,-1.5626 -2.049,0.406 -3.8458,1.4568 -5.4692,2.3972 -1.6233,0.9402 -3.0841,1.7477 -4.2085,1.9001 -1.1244,0.1525 -1.974,-0.105 -3.0897,-1.7936 -0.053,-0.081 -0.1195,-0.1526 -0.1953,-0.2132 -2.7656,-2.1447 -6.3302,-2.4966 -9.5533,-2.6103 -0.053,0 -0.1073,0.017 -0.1599,0.018 -3.139,0.4979 -4.6428,2.084 -6.6412,4.3329 0.9544,-0.5324 0.6884,-0.802 1.5804,-1.1722 1.8136,-0.7656 3.609,-1.2496 5.487,-0.6037 1.8456,0.6159 3.3947,1.9494 4.4216,3.5869 1.387,2.206 1.8661,4.9053 1.5803,7.4759 -0.068,0.6103 -0.1681,1.2163 -0.3196,1.8113 -0.7077,2.8697 -2.4327,5.5016 -4.9011,7.156 -1.029,0.6917 -2.1984,1.2193 -3.427,1.4205 -2.1009,0.3656 -4.3637,-0.081 -6.073,-1.3849 -0.9385,-0.695 -1.4524,-2.4175 -2.0598,-3.4093 0.1435,2.0188 -1.6166,5.3731 -2.6458,7.9907 -0.5284,1.3439 -0.9103,2.7434 -0.6748,4.1907 0.2354,1.4476 1.1555,2.839 2.8767,3.9775 0.066,0.044 0.1378,0.081 0.213,0.1065 6.2924,1.9984 12.8715,0.017 18.6983,1.3142 0.024,0 0.048,0 0.072,0 11.5802,1.5255 24.103,1.8477 34.9108,-3.9423 6.7158,-3.5735 13.4588,-7.0162 20.7225,-9.0205 0.012,1e-4 0.024,1e-4 0.035,0 3.1073,-0.9864 4.6625,-3.7198 4.7767,-6.4814 0.1142,-2.7616 -1.0684,-5.649 -3.3916,-7.3692 -0.045,-0.035 -0.092,-0.065 -0.1422,-0.088 -2.1965,-1.0786 -3.2523,-2.8051 -4.0663,-4.9365 -0.1645,-0.4312 -0.3157,-0.8757 -0.4617,-1.3318 0.095,1.8186 -0.2497,3.6508 -1.1543,5.2561 -1.3188,2.4054 -3.9609,3.9602 -6.6944,4.0131 -3.7806,0.1203 -7.3741,-2.0626 -9.5356,-5.0786 -0.8081,-1.1152 -1.4454,-2.3453 -1.8644,-3.658 -1.0011,-3.063 -0.7283,-6.7077 1.3317,-9.287 1.6701,-2.1463 4.6255,-2.9418 7.3047,-2.6505 0.7722,0.075 0.7438,0.3102 1.4705,0.5488 -1.6449,-0.6917 -2.7627,-1.4257 -4.549,-1.4319 z"
           id="path17808"
           inkscape:connector-curvature="0"
           sodipodi:nodetypes="scsscccsssccccccccccccccsscccccccsccsccccccccs" />
        <path
           inkscape:connector-curvature="0"
           style="fill:#aad400;fill-opacity:1;stroke:none"
           d="m -2613.649,3009.9976 c -8.3343,1.3219 -13.2561,11.4339 -9.8455,18.8934 0.5898,5.0333 -6.8793,10.6791 -0.5832,14.8443 5.9341,1.8845 12.4647,-0.088 18.6072,1.2854 11.5108,1.5164 23.8136,1.7941 34.3497,-3.8502 6.7258,-3.5788 13.5402,-7.0457 20.9214,-9.0825 5.4826,-1.7401 5.1985,-9.2507 1.1096,-12.2789 -4.8951,-2.4037 -4.8096,-7.9745 -6.8933,-12.2473 -3.1784,-5.2991 -10.2065,-7.8263 -15.9392,-5.0993 -9.1874,2.6764 -8.6857,13.2208 -13.0729,9.2451 -8.4332,-6.0843 -14.6938,8.1963 -19.6374,0.7102 -2.5023,-1.9408 -5.8417,-2.3082 -9.0164,-2.4202 z"
           id="path17810"
           sodipodi:nodetypes="cccccccccccc" />
        <path
           inkscape:connector-curvature="0"
           style="fill:#111111;fill-opacity:1;stroke:none"
           d="m -2572.2341,3018.6747 c 4.0704,8.857 20.2931,6.1824 19.2594,-4.2891 0.1836,-8.8527 -11.1751,-17.3046 -18.8394,-11.0769 -4.279,3.8938 -3.8691,11.0877 -0.42,15.366 z"
           id="path17812" />
        <path
           inkscape:connector-curvature="0"
           style="fill:#111111;fill-opacity:1;stroke:none"
           d="m -2605.3534,3025.1767 c -0.4739,9.4797 -16.1939,12.7604 -18.8534,2.8709 -3.2211,-7.8909 4.0236,-19.408 13.074,-16.4788 5.1628,2.0105 7.3524,8.5678 5.7794,13.6079 z"
           id="path17814" />
        <path
           inkscape:connector-curvature="0"
           style="fill:#d40000;fill-opacity:1;stroke:none"
           d="m -2606.7632,3024.6255 c -0.7077,2.8699 -2.4364,5.5178 -4.9048,7.1726 -1.0291,0.6915 -2.1873,1.2098 -3.416,1.4113 -2.1009,0.3653 -4.3722,-0.088 -6.0814,-1.3911 -1.7655,-1.3074 -2.9634,-3.283 -3.5251,-5.3892 -0.9938,-3.7737 -0.097,-7.9736 2.2843,-11.0552 1.0997,-1.4146 2.5079,-2.6249 4.1739,-3.316 1.8136,-0.7657 3.9137,-0.9513 5.7917,-0.3053 1.8457,0.6158 3.402,1.9503 4.429,3.5881 1.387,2.2058 1.864,4.9038 1.5782,7.4744 -0.068,0.6102 -0.1782,1.2156 -0.3298,1.8104 z"
           id="path17816" />
        <path
           inkscape:connector-curvature="0"
           style="fill:#d40000;fill-opacity:1;stroke:none"
           d="m -2571.8106,3017.7224 c 2.1617,3.0161 5.7403,5.1858 9.521,5.0645 2.7336,-0.053 5.3866,-1.6074 6.7054,-4.0131 1.7194,-3.0517 1.4319,-6.9086 -0.098,-9.9744 -1.7884,-3.6529 -5.3791,-6.5544 -9.4975,-6.95 -2.6791,-0.2912 -5.5045,0.7772 -7.1746,2.9235 -2.06,2.5792 -2.3226,6.2177 -1.3216,9.2809 0.4191,1.3126 1.0571,2.5531 1.8652,3.6686 z"
           id="path17818" />
        <path
           inkscape:connector-curvature="0"
           style="fill:#111111;fill-opacity:1;stroke:none"
           d="m -2619.0449,3015.9766 c -1.7012,0.6918 -3.0337,2.6211 -3.3961,5.2795 -0.5523,4.0509 1.3636,8.2669 4.2809,9.4062 0.2991,0.1157 0.6018,0.1907 0.8964,0.2356 -0.9437,-2.4904 -1.5523,-5.2928 -1.6373,-7.9469 -0.1174,-3.6586 0.7925,-6.1971 2.2776,-7.1146 -0.8426,-0.2242 -1.6686,-0.166 -2.4215,0.1385 z"
           id="path17820" />
        <path
           inkscape:connector-curvature="0"
           id="path17822"
           d="m -2559.6175,3018.4992 c 1.5723,-0.8672 2.5874,-2.7932 2.5304,-5.2343 -0.087,-3.7198 -2.637,-7.2318 -5.6965,-7.8343 -0.3136,-0.061 -0.624,-0.085 -0.922,-0.084 1.3208,2.1016 2.3593,4.5318 2.8575,6.9046 0.6868,3.2706 0.1844,5.6829 -1.1392,6.7218 0.867,0.079 1.6738,-0.091 2.3698,-0.4755 z"
           style="fill:#111111;fill-opacity:1;stroke:none" />
        <path
           transform="matrix(0.01566094,-0.06168165,0.0493453,0.01252875,-2643.6898,3023.926)"
           style="fill:#ffffff;fill-opacity:1;stroke:none"
           d="m 208.57143,449.50504 c 0,15.77956 -15.35023,28.57142 -34.28571,28.57142 -18.93548,0 -34.28571,-12.79186 -34.28571,-28.57142 0,-15.77957 15.35023,-28.57143 34.28571,-28.57143 18.93548,0 34.28571,12.79186 34.28571,28.57143 z"
           id="path17824"
           inkscape:connector-curvature="0" />
        <path
           transform="matrix(-0.01540267,-0.02902828,0.02322262,-0.01232213,-2596.8565,3048.2902)"
           style="fill:#111111;fill-opacity:1;stroke:none"
           d="m 208.57143,449.50504 c 0,15.77956 -15.35023,28.57142 -34.28571,28.57142 -18.93548,0 -34.28571,-12.79186 -34.28571,-28.57142 0,-15.77957 15.35023,-28.57143 34.28571,-28.57143 18.93548,0 34.28571,12.79186 34.28571,28.57143 z"
           id="path17826"
           inkscape:connector-curvature="0" />
        <path
           transform="matrix(0.01203588,-0.03057812,-0.02446249,-0.00962871,-2573.7384,3046.026)"
           style="fill:#111111;fill-opacity:1;stroke:none"
           d="m 208.57143,449.50504 c 0,15.77956 -15.35023,28.57142 -34.28571,28.57142 -18.93548,0 -34.28571,-12.79186 -34.28571,-28.57142 0,-15.77957 15.35023,-28.57143 34.28571,-28.57143 18.93548,0 34.28571,12.79186 34.28571,28.57143 z"
           id="path17828"
           inkscape:connector-curvature="0" />
        <path
           inkscape:connector-curvature="0"
           style="fill:none;stroke:#000000;stroke-width:0.51856101px;stroke-linecap:butt;stroke-linejoin:miter;stroke-opacity:1"
           d="m -2562.2454,3041.9109 0,0 z"
           id="path17830" />
        <path
           inkscape:connector-curvature="0"
           style="fill:none;stroke:#000000;stroke-width:0.51856101px;stroke-linecap:butt;stroke-linejoin:miter;stroke-opacity:1"
           d="m -2558.7208,3038.2674 0,0 z"
           id="path17832" />
        <path
           sodipodi:nodetypes="ccscccccscccccscscccsccccccccccccccccccccccsccccccccscccccsc"
           style="fill:#111111;fill-opacity:1;fill-rule:evenodd;stroke:none"
           d="m -2521.7646,3095.9485 c -0.073,0.017 -0.1454,0.024 -0.2132,0.053 0,0 -6.3186,2.5588 -14.614,4.6702 -8.2956,2.1114 -18.5688,3.7383 -26.2275,1.971 -0.4575,-0.1005 -0.9488,0.3325 -0.9055,0.7991 l 3.4643,16.6127 c 0.043,0.4444 -1.2783,1.9045 -0.854,1.7659 -3.7813,2.189 -10.6881,5.3583 -19.8172,5.2029 -1.1619,-1.3761 -2.959,-1.9671 -4.5635,-1.1365 -2.289,1.1852 -3.2194,4.3283 -2.415,7.1385 0.4019,1.404 1.1898,2.5136 2.2196,3.1429 1.0299,0.6295 2.317,0.7173 3.4627,0.1248 0.6231,-0.3226 1.1106,-0.8111 1.5093,-1.3674 1.7434,-0.504 5.5949,-1.832 10.7433,-3.8888 -1.1088,0.9437 -2.3585,1.9819 -3.9422,3.1786 -3.6166,2.7328 -8.3844,5.9418 -13.7619,8.7366 -1.554,-0.6529 -3.3356,-0.6289 -4.7767,0.3374 -2.3685,1.588 -2.8089,4.9489 -1.1009,7.4402 1.7089,2.4924 5.001,3.328 7.3693,1.7401 1.3739,-0.9212 2.0825,-2.4584 2.1131,-4.0486 2.0052,-2.1404 5.1555,-5.3605 8.559,-8.1149 3.2557,-2.635 6.7141,-4.7155 9.3048,-5.1319 0.083,0.4025 0.1663,1.0432 0.072,1.9532 -0.1906,1.8192 -1.0503,4.7372 -3.7823,8.861 -0.6617,0.4001 -1.2723,0.9098 -1.7048,1.5627 -0.3317,0.5007 -0.4566,1.0338 -0.5504,1.5625 -0.048,0.065 -0.097,0.1263 -0.1243,0.1592 -0.2226,0.2878 -0.1902,0.7413 0.071,0.9945 0.1968,1.5954 1.3286,3.0387 3.1253,3.7469 2.8231,1.1125 6.2234,0.2683 7.7776,-2.0777 1.1416,-1.723 0.7431,-3.8048 -0.657,-5.2028 -0.038,-2.204 0.2482,-11.8397 7.2626,-20.5983 1.5238,-0.8276 3.3416,-1.7802 5.3805,-2.7525 0.017,-0.017 0.037,-0.017 0.053,-0.018 1.0913,-0.4037 2.2774,-0.8428 3.5691,-1.4381 0.381,-0.1758 0.7032,-0.3879 1.03,-0.6039 8.6538,-3.612 19.3532,-6.5209 27.0087,-3.8712 0.035,0.017 0.07,0.017 0.1067,0.017 0,0 2.5612,0.5092 5.0075,-0.3374 1.2231,-0.4233 2.4574,-1.2079 3.214,-2.5925 0.7466,-1.3662 0.9841,-3.2603 0.5327,-5.7535 l 0.017,0 c 0,0 -0.017,-0.085 -0.017,-0.088 -0.012,-0.1309 -0.199,-2.3151 -1.829,-4.9542 -1.6793,-2.7191 -4.889,-5.8887 -10.8142,-7.7598 -0.097,-0.032 -0.2001,-0.044 -0.3019,-0.035 z m -14.0105,13.9569 c -1.0449,0.3631 -2.1815,0.7325 -3.1607,1.1011 -0.1142,-0.017 -0.2306,-0.038 -0.3196,-0.035 -0.2369,0.017 -0.4561,0.056 -0.7104,0.1248 -0.5085,0.1339 -1.1269,0.3532 -1.8645,0.6569 -1.4751,0.6074 -3.3983,1.5204 -5.4159,2.5215 -4.0351,2.0025 -8.4803,4.3831 -10.53,5.4869 -0.037,0.021 -0.073,0.043 -0.1066,0.072 0,0 -1.232,0.826 -2.9654,1.8468 0.1146,-0.1035 0.1965,-0.2409 0.2308,-0.3908 l 0.657,-2.7345 c 10.5108,-5.4518 17.6417,-7.6054 22.09,-8.3815 0.8187,-0.1431 1.4518,-0.2032 2.0953,-0.2662 z"
           id="path17834"
           inkscape:connector-curvature="0" />
        <path
           sodipodi:nodetypes="ccsccccccccccccccccscccc"
           inkscape:connector-curvature="0"
           id="path17836"
           d="m -2521.6954,3096.6872 c 0,0 -21.9675,9.3283 -37.7935,7.3147 0.8574,1.0524 0.6191,2.1877 0.4501,3.4283 -0.2303,1.6922 -1.4113,3.2664 -3.1442,3.5478 l 0.8358,10.1255 0.7458,-3.0721 c 21.482,-11.2076 29.104,-8.8077 29.104,-8.8077 -2.6976,0.8275 -5.1606,1.6869 -7.4579,2.5571 -0.6846,-0.9016 -14.372,6.4243 -18.4675,8.6301 0,0 -10.0641,8.0283 -24.6115,7.3513 l -0.3375,6.8544 c 0,0 5.2869,-1.2306 15.9638,-5.8066 -1.8218,1.964 -11.9377,10.8645 -24.7358,16.6739 l 4.2972,4.8477 c 0,0 13.3268,-15.5018 21.1489,-16.0348 0,0 2.5542,4.5839 -6.0197,15.4312 l 9.0029,-2.3264 c 0,0 -0.7906,-11.6184 7.4936,-21.8589 1.5718,-0.8566 3.4825,-1.8452 5.6113,-2.8591 1.1036,-0.4082 2.2896,-0.8484 3.5691,-1.4382 0.3691,-0.1701 0.7179,-0.3879 1.0654,-0.6215 8.7208,-3.6401 19.5309,-6.6617 27.5414,-3.8888 0,0 9.7062,1.8153 7.8842,-7.902 0,0 -0.6068,-8.5021 -12.1459,-12.1459 z"
           style="fill:#aad400;fill-rule:evenodd;stroke:none" />
        <path
           style="fill:#111111;fill-opacity:1;fill-rule:evenodd;stroke:none"
           d="m -2636.0855,3072.2603 c -2.638,0.034 -4.7589,1.172 -4.7589,1.172 a 0.72965686,0.72965686 0 0 0 -0.1242,0.072 c -2.8951,2.3514 -4.3966,4.8972 -5.1674,6.8544 -0.7419,1.8834 -0.7949,3.2178 -0.7991,3.3207 0,0 -0.017,-2e-4 -0.017,0 0,0.024 0.011,0.047 0,0.072 -0.5163,4.6192 1.5015,8.3299 5.0963,12.0039 a 0.72965686,0.72965686 0 0 0 0.035,0.035 c 4.8721,4.225 20.0695,12.9552 28.6601,16.3366 -0.225,0.7112 -0.4405,1.4516 -0.657,2.5215 a 0.72965686,0.72965686 0 0 0 -0.017,0.088 c 0,0 -0.8881,11.6694 -7.6001,21.6637 -0.7253,0.088 -1.4286,0.3695 -1.8823,0.9944 -0.5678,0.7827 -0.6628,1.7883 -0.4439,2.7348 0.2189,0.9461 0.7402,1.8583 1.5449,2.5925 0.8048,0.7341 1.754,1.1542 2.6814,1.2074 0.9272,0.053 1.8635,-0.2989 2.4327,-1.0832 0.5367,-0.7397 0.5974,-1.6531 0.4261,-2.5393 0.542,-1.5278 1.4033,-4.1945 2.3795,-7.4579 -0.352,5.1146 -1.1598,12.5087 -2.9655,20.3495 -0.8893,0.5324 -1.6231,1.3139 -1.7934,2.3618 -0.3318,2.0413 1.4076,3.8351 3.6401,4.1019 2.2354,0.2673 4.4095,-0.9951 4.7413,-3.0366 0.1898,-1.168 -0.3991,-2.226 -1.2608,-2.983 -0.097,-2.3537 -0.2335,-6.9385 0.017,-11.631 0.236,-4.406 0.8975,-8.7926 2.0244,-11.2758 0.1589,0.1217 0.3007,0.1859 0.5327,0.4793 0.7031,0.8896 1.6562,2.8106 2.3972,6.5703 -0.8488,1.8688 -0.8248,4.0384 0.4084,5.5049 0.8024,0.9539 1.9782,1.3696 3.143,1.2427 1.1649,-0.1263 2.3216,-0.7492 3.2319,-1.7934 1.8196,-2.0877 2.1692,-5.1637 0.5682,-7.0672 -0.7079,-0.8418 -1.7119,-1.1849 -2.7346,-1.1898 -1.5,-1.9413 -5.8936,-8.4662 -6.4992,-19.3198 0.056,-0.7118 0.017,-1.3966 -0.035,-2.0599 -4e-4,-0.017 4e-4,-0.017 0,-0.018 a 0.72965686,0.72965686 0 0 0 0.1066,-0.1431 l 0.035,-0.072 a 0.72965686,0.72965686 0 0 0 0.072,-0.3374 l -0.2664,-12.6253 a 0.72965686,0.72965686 0 0 0 -0.1776,-0.4617 l -20.6694,-24.1321 c -0.011,-0.017 -0.025,-0.021 -0.035,-0.035 -1.7917,-2.3506 -4.227,-3.0441 -6.2683,-3.0187 z"
           id="path17838"
           inkscape:connector-curvature="0" />
        <path
           inkscape:connector-curvature="0"
           style="fill:#aad400;fill-rule:evenodd;stroke:none"
           d="m -2609.4234,3112.6298 c -6.7772,-1.5684 -26.5262,-12.7038 -31.9219,-17.3834 -3.5417,-3.6194 -5.4015,-7.0715 -4.884,-11.4806 0,0 0.1353,-5.1543 5.7198,-9.6901 0,0 6.3628,-3.3309 10.1332,1.6794 0,0 0,0 20.7062,24.1766 0.2664,12.6166 0.2664,12.6166 0.2664,12.6166 l 0,0 0,0"
           id="path17840"
           sodipodi:nodetypes="ccccccccc" />
        <path
           style="fill:#111111;fill-opacity:1;fill-rule:evenodd;stroke:none"
           d="m -2615.6824,3044.9319 c -0.3294,0.041 -0.6271,0.276 -0.7459,0.5861 -1.9353,4.9647 -4.4582,7.6952 -6.4636,9.1982 -2.0053,1.5031 -3.4093,1.7581 -3.4093,1.7581 -0.036,0.017 -0.072,0.021 -0.1067,0.035 -5.8764,1.9059 -9.0737,4.345 -10.7963,6.3926 -0.8614,1.0237 -1.3604,1.9475 -1.6337,2.6279 -0.2733,0.6806 -0.3374,1.1898 -0.3374,1.1898 l 0.018,0 c -0.3025,0.6686 -0.3202,1.3986 -0.2131,2.2553 0.1305,1.0429 0.434,2.2657 0.8524,3.6579 0.8369,2.7842 2.1429,6.1775 3.5159,9.4645 2.746,6.5742 5.7533,12.7675 5.7533,12.7675 0.012,0.018 0.023,0.036 0.035,0.053 1.709,3.0187 5.0939,4.0814 7.9197,4.4571 2.8259,0.3758 5.2561,0.072 5.2561,0.072 0.1464,-0.02 0.2878,-0.075 0.4085,-0.1594 0.6206,-0.4284 1.1062,-0.4366 1.8112,-0.1065 0.7051,0.3301 1.5289,1.0883 2.3085,2.1664 1.5331,2.1204 2.8531,5.4094 3.3383,8.5766 -0.347,0.8276 -0.4905,1.7445 -0.2309,2.6281 0.6812,2.3178 3.399,3.3165 5.8777,2.5038 2.064,-0.6768 3.4641,-2.4274 3.5159,-4.3506 0.2991,-0.3661 0.249,-0.9668 -0.1067,-1.2785 -0.4044,-1.2198 -1.4364,-2.0019 -2.628,-2.3794 -2.1263,-1.9914 -3.4727,-3.4882 -4.2439,-4.5637 -0.7765,-1.0826 -0.9511,-1.7329 -0.9589,-1.9533 -0.011,-0.2202 -0.024,-0.085 0.018,-0.1065 0.041,-0.023 0.1065,-0.035 0.1065,-0.035 0.011,0 0.012,0 0.018,0 7.8337,-0.4357 12.2757,1.6769 14.7029,3.5336 0.7429,1.9189 2.256,3.3921 4.2263,3.498 1.5114,0.081 2.9122,-0.6603 3.9066,-1.8111 0.9944,-1.151 1.6349,-2.7192 1.758,-4.4748 0.1229,-1.7555 -0.2889,-3.4082 -1.1188,-4.6702 -0.8299,-1.2617 -2.1264,-2.156 -3.6402,-2.2374 -1.006,-0.055 -1.9458,0.3056 -2.7523,0.8524 -5.7547,-0.2683 -9.7215,-0.6823 -12.3413,-1.1543 -2.6639,-0.4799 -3.982,-1.0561 -4.4037,-1.3849 -0.093,-0.073 -0.1289,-0.1218 -0.1422,-0.1431 0.087,-0.1096 0.3197,-0.2841 0.3197,-0.2841 0.1249,-0.062 0.2351,-0.1542 0.3196,-0.2664 5.0822,-7.2092 11.466,-8.8863 14.7207,-9.2867 1.2778,0.4024 2.6486,0.3876 3.7822,-0.3552 1.2486,-0.818 1.9194,-2.2226 2.0421,-3.7292 0.123,-1.5063 -0.2582,-3.1542 -1.1541,-4.6522 -0.8959,-1.498 -2.1612,-2.5889 -3.5338,-3.1431 -1.3725,-0.5543 -2.9058,-0.5345 -4.1552,0.2841 -1.2529,0.8211 -1.8604,2.2434 -1.9887,3.7645 -4.2215,5.5903 -8.2312,8.9851 -11.1871,10.9739 -2.9766,2.0029 -4.8121,2.557 -4.8121,2.557 -0.043,0.017 -0.085,0.034 -0.1242,0.053 -1.9237,0.9611 -3.4776,1.0822 -4.7945,0.7812 -1.3169,-0.3009 -2.4262,-1.0524 -3.3383,-1.9532 -1.8242,-1.8017 -2.7347,-4.1375 -2.7347,-4.1375 -0.011,0 -0.012,0 -0.017,0 -2.2375,-5.7138 -2.1082,-9.1928 -1.5271,-11.1869 0.2905,-0.9972 0.6972,-1.6217 1.0122,-2.0068 0.3149,-0.3846 0.4794,-0.4794 0.4794,-0.4794 2.4169,-1.5392 5.4245,-2.6074 8.525,-2.7902 l 0.2115,-5.2359 1.6675,-6.6981 -0.8346,-1.9571 -0.2646,-2.2477 -0.7103,-2.5037 z"
           id="path17842"
           inkscape:connector-curvature="0"
           sodipodi:nodetypes="ccsccssccsssccsccsscsscccscccccssssscscccccssssscsccssccsscccccccc" />
        <path
           inkscape:connector-curvature="0"
           style="fill:#aad400;fill-rule:evenodd;stroke:none"
           d="m -2615.5702,3045.8553 c -3.9857,10.2239 -10.5678,11.5365 -10.5678,11.5365 -11.4989,3.7296 -12.1236,9.4482 -12.1236,9.4482 -2.1877,2.9194 9.841,27.6216 9.841,27.6216 2.9843,5.2716 12.2504,4.0684 12.2504,4.0684 3.7823,-2.6113 8.7318,5.9753 9.1054,13.1418 7.3409,-1.564 7.1556,-1.5792 7.1556,-1.5792 -12.1642,-10.5062 -6.9526,-10.6257 -6.9526,-10.6257 14.194,-0.7894 18.0841,6.6644 18.0841,6.6644 2.857,-9.9608 2.866,-9.9568 2.866,-9.9568 -28.0962,-0.8512 -20.8234,-4.8443 -20.8234,-4.8443 7.3705,-10.4554 17.6275,-9.7962 17.6275,-9.7962 -4.3212,-9.1763 -4.3117,-9.1803 -4.3117,-9.1803 -9.3739,13.9218 -18.566,16.8085 -18.566,16.8085 -8.3235,4.1586 -12.149,-5.8081 -12.149,-5.8081 -4.5768,-11.6876 0.3297,-14.8011 0.3297,-14.8011 2.6295,-1.6748 6.2065,-2.9655 9.5932,-3.097 0.2288,-8.5949 4.6562,-9.9656 1.0686,-15.1175 -0.7154,-1.0272 1.8193,-3.1181 -2.4274,-4.4832 z"
           id="path17844"
           sodipodi:nodetypes="cccccccccccccccccsc" />
        <path
           transform="matrix(0.37874134,-0.24815614,0.24430309,0.40851584,-2226.906,3274.1248)"
           style="fill:#d40000;fill-opacity:1;stroke:none"
           d="m -457.1099,-766.82947 c 0,6.56675 -4.14042,11.89014 -9.24789,11.89014 -5.10747,0 -9.24789,-5.32339 -9.24789,-11.89014 0,-6.56674 4.14042,-11.89014 9.24789,-11.89014 5.10747,0 9.24789,5.3234 9.24789,11.89014 z"
           id="path17846"
           inkscape:connector-curvature="0" />
        <path
           inkscape:connector-curvature="0"
           style="fill:#aad400;fill-rule:evenodd;stroke:none"
           d="m -2559.0273,3036.5289 c 3.4578,7.0102 9.8046,7.7856 9.8046,7.7856 11.6898,2.5627 13.7105,10.8056 13.7105,10.8056 2.4988,2.7932 -6.1726,29.9583 -6.1726,29.9583 -2.258,5.8455 -11.4538,5.6606 -11.4538,5.6606 -4.0173,-2.2877 -7.7815,7.2438 -7.2551,14.7647 -7.3612,-0.7835 -7.349,-0.7728 -7.349,-0.7728 10.5689,-12.3682 5.6333,-11.9388 5.6333,-11.9388 -8.6913,-3.9541 -17.7197,-2.4937 -17.7197,-2.4937 2.2918,-4.9645 1.0064,-7.4824 1.0064,-7.4824 14.8587,10.5575 15.5776,1.5008 15.5776,1.5008 -6.4244,-14.2045 -15.3355,-12.9853 -15.3355,-12.9853 3.1841,-6.3982 7.8033,-5.8359 7.8033,-5.8359 2.5233,9.4855 12.3883,15.9524 12.3883,15.9524 8.6431,3.3771 11.1383,-7.4642 11.1383,-7.4642 3.0149,-12.724 -2.1624,-15.4059 -2.1624,-15.4059 -2.7752,-1.4435 -6.5647,-3.3348 -9.8874,-3.0807 -1.2921,-8.9419 -9.6927,-11.2547 -2.7862,-14.6927 1.1092,-0.552 -0.9167,-2.3603 3.0594,-4.2756 z"
           id="path17848"
           sodipodi:nodetypes="cccccccccccccccccsc" />
        <path
           transform="matrix(0.46295383,0.02489697,-0.03344926,0.47731651,-2397.167,3478.4591)"
           style="fill:#d40000;fill-opacity:1;stroke:none"
           d="m -457.1099,-766.82947 c 0,6.56675 -4.14042,11.89014 -9.24789,11.89014 -5.10747,0 -9.24789,-5.32339 -9.24789,-11.89014 0,-6.56674 4.14042,-11.89014 9.24789,-11.89014 5.10747,0 9.24789,5.3234 9.24789,11.89014 z"
           id="path17850"
           inkscape:connector-curvature="0" />
        <path
           transform="matrix(-0.25046002,-0.45265953,-0.388997,0.30708582,-2990.619,3090.8584)"
           style="fill:#d40000;fill-opacity:1;stroke:none"
           d="m -457.1099,-766.82947 c 0,6.56675 -4.14042,11.89014 -9.24789,11.89014 -5.10747,0 -9.24789,-5.32339 -9.24789,-11.89014 0,-6.56674 4.14042,-11.89014 9.24789,-11.89014 5.10747,0 9.24789,5.3234 9.24789,11.89014 z"
           id="path17852"
           inkscape:connector-curvature="0" />
        <path
           transform="matrix(0.09993667,0.34008998,-0.31824561,0.10435205,-2801.1728,3349.6664)"
           style="fill:#d40000;fill-opacity:1;stroke:none"
           inkscape:transform-center-x="-21.092518"
           inkscape:transform-center-y="-2.9169161"
           d="m -457.1099,-766.82947 c 0,6.56675 -4.14042,11.89014 -9.24789,11.89014 -5.10747,0 -9.24789,-5.32339 -9.24789,-11.89014 0,-6.56674 4.14042,-11.89014 9.24789,-11.89014 5.10747,0 9.24789,5.3234 9.24789,11.89014 z"
           id="path17854"
           inkscape:connector-curvature="0" />
        <path
           transform="matrix(-0.39279773,-0.11662625,-0.10312577,0.44242606,-2842.6322,3371.1561)"
           style="fill:#d40000;fill-opacity:1;stroke:none"
           d="m -457.1099,-766.82947 c 0,6.56675 -4.14042,11.89014 -9.24789,11.89014 -5.10747,0 -9.24789,-5.32339 -9.24789,-11.89014 0,-6.56674 4.14042,-11.89014 9.24789,-11.89014 5.10747,0 9.24789,5.3234 9.24789,11.89014 z"
           id="path17856"
           inkscape:connector-curvature="0" />
        <path
           inkscape:connector-curvature="0"
           sodipodi:nodetypes="ccccccccccc"
           id="path17858"
           d="m -2609.5815,3115.2044 c 0.7452,13.3564 7.2678,20.4945 7.2678,20.4945 -3.2169,8.1384 -3.1649,7.3776 -3.1649,7.3776 -1.2083,-13.1887 -4.7743,-13.4093 -4.7743,-13.4093 -3.5342,6.1419 -2.3274,25.7844 -2.3274,25.7844 -4.4865,0.1526 -4.4865,0.1526 -4.4865,0.1526 3.3375,-13.1552 3.845,-26.277 3.7571,-28.8651 -2.9184,10.8046 -4.8762,15.5215 -4.8762,15.5215 -3.233,-4.5736 -3.233,-4.5736 -3.233,-4.5736 7.3989,-10.3733 8.3148,-22.8923 8.3148,-22.8923 1.8279,-9.03 3.9236,-4.1132 3.5226,0.41 z"
           style="fill:#aad400;fill-rule:evenodd;stroke:none" />
        <path
           transform="matrix(0.25394609,0.30194801,-0.24520549,0.28133373,-2672.6851,3496.0247)"
           style="fill:#d40000;fill-opacity:1;stroke:none"
           d="m -457.1099,-766.82947 c 0,6.56675 -4.14042,11.89014 -9.24789,11.89014 -5.10747,0 -9.24789,-5.32339 -9.24789,-11.89014 0,-6.56674 4.14042,-11.89014 9.24789,-11.89014 5.10747,0 9.24789,5.3234 9.24789,11.89014 z"
           id="path17860"
           inkscape:connector-curvature="0" />
        <path
           transform="matrix(-0.04998231,0.30749425,-0.29106302,-0.03479045,-2861.3725,3272.8131)"
           style="fill:#d40000;fill-opacity:1;stroke:none"
           d="m -457.1099,-766.82947 c 0,6.56675 -4.14042,11.89014 -9.24789,11.89014 -5.10747,0 -9.24789,-5.32339 -9.24789,-11.89014 0,-6.56674 4.14042,-11.89014 9.24789,-11.89014 5.10747,0 9.24789,5.3234 9.24789,11.89014 z"
           id="path17862"
           inkscape:connector-curvature="0" />
        <path
           transform="matrix(-0.16250392,0.22391834,-0.21196427,-0.19336291,-2858.5372,3096.2719)"
           style="fill:#d40000;fill-opacity:1;stroke:none"
           inkscape:transform-center-x="-2.1709371"
           inkscape:transform-center-y="1.3479024"
           d="m -457.1099,-766.82947 c 0,6.56675 -4.14042,11.89014 -9.24789,11.89014 -5.10747,0 -9.24789,-5.32339 -9.24789,-11.89014 0,-6.56674 4.14042,-11.89014 9.24789,-11.89014 5.10747,0 9.24789,5.3234 9.24789,11.89014 z"
           id="path17864"
           inkscape:connector-curvature="0" />
        <path
           transform="matrix(-0.25587545,0.38622367,-0.38046682,-0.14993955,-2977.5561,3214.8833)"
           style="fill:#d40000;fill-opacity:1;stroke:none"
           d="m -457.1099,-766.82947 c 0,6.56675 -4.14042,11.89014 -9.24789,11.89014 -5.10747,0 -9.24789,-5.32339 -9.24789,-11.89014 0,-6.56674 4.14042,-11.89014 9.24789,-11.89014 5.10747,0 9.24789,5.3234 9.24789,11.89014 z"
           id="path17866"
           inkscape:connector-curvature="0" />
        <path
           transform="matrix(-0.39092605,0.26210306,-0.22869909,-0.33356135,-2947.0066,3014.3241)"
           style="fill:#d40000;fill-opacity:1;stroke:none"
           d="m -457.1099,-766.82947 c 0,6.56675 -4.14042,11.89014 -9.24789,11.89014 -5.10747,0 -9.24789,-5.32339 -9.24789,-11.89014 0,-6.56674 4.14042,-11.89014 9.24789,-11.89014 5.10747,0 9.24789,5.3234 9.24789,11.89014 z"
           id="path17868"
           inkscape:connector-curvature="0" />
        <path
           transform="matrix(-0.36193995,0.18738443,-0.10930152,-0.38182967,-2836.4678,2925.678)"
           style="fill:#d40000;fill-opacity:1;stroke:none"
           inkscape:transform-center-x="-3.0116719"
           inkscape:transform-center-y="0.71204616"
           d="m -457.1099,-766.82947 c 0,6.56675 -4.14042,11.89014 -9.24789,11.89014 -5.10747,0 -9.24789,-5.32339 -9.24789,-11.89014 0,-6.56674 4.14042,-11.89014 9.24789,-11.89014 5.10747,0 9.24789,5.3234 9.24789,11.89014 z"
           id="path17870"
           inkscape:connector-curvature="0" />
        <path
           transform="matrix(-0.05568716,0.40897602,0.36883203,0.09907915,-2307.2669,3372.7589)"
           style="fill:#d40000;fill-opacity:1;stroke:none"
           inkscape:transform-center-x="-0.42766099"
           inkscape:transform-center-y="0.149712"
           d="m -457.1099,-766.82947 c 0,6.56675 -4.14042,11.89014 -9.24789,11.89014 -5.10747,0 -9.24789,-5.32339 -9.24789,-11.89014 0,-6.56674 4.14042,-11.89014 9.24789,-11.89014 5.10747,0 9.24789,5.3234 9.24789,11.89014 z"
           id="path17872"
           inkscape:connector-curvature="0" />
        <path
           inkscape:connector-curvature="0"
           sodipodi:nodetypes="cccsc"
           id="path17874"
           d="m -2622.4649,3044.7241 c 14.1615,2.9458 24.8559,6.8701 40.3546,5.0279 14.518,-3.8809 14.2148,-8.6705 35.2604,-19.2166 -18.7953,5.8214 -20.9639,11.6631 -36.1186,14.6215 -16.0246,3.1283 -27.1898,-3.1199 -39.4964,-0.4328 z"
           style="fill:#111111;fill-opacity:1;stroke:none" />
        <path
           inkscape:connector-curvature="0"
           style="fill:#111111;fill-opacity:1;stroke:none"
           d="m -2621.0383,3045.1257 c 13.5802,2.2379 25.1361,5.7812 39.4035,2.8294 14.4142,-3.6328 12.7447,-7.3784 33.2343,-16.8706 -18.2245,5.3877 -19.4656,11.5254 -34.1243,14.379 -15.5001,3.0176 -26.6038,-2.8994 -38.5135,-0.3378 z"
           id="path17876"
           sodipodi:nodetypes="cccsc" />
        <g
           style="font-size:24.92353058px;font-style:normal;font-weight:normal;line-height:125%;letter-spacing:0px;word-spacing:0px;fill:#111111;fill-opacity:1;stroke:none;font-family:Sans"
           id="text17878">
          <path
             d="m -2873.1011,3220.607 0.049,0.645 0.049,-0.645 3.8699,-13.6179 1.6186,0 -5.1356,17.4513 -0.8275,0 -5.1113,-17.4513 1.6307,0 3.8578,13.6179"
             style="font-variant:normal;font-stretch:normal;fill:#111111;font-family:Abel;-inkscape-font-specification:Abel"
             id="path18104"
             inkscape:connector-curvature="0" />
          <path
             d="m -2865.2516,3224.4404 0,-17.4513 1.5699,0 0,17.4513 -1.5699,0"
             style="font-variant:normal;font-stretch:normal;fill:#111111;font-family:Abel;-inkscape-font-specification:Abel"
             id="path18106"
             inkscape:connector-curvature="0" />
          <path
             d="m -2859.7023,3224.4404 0,-17.4513 1.5699,0 0,17.4513 -1.5699,0"
             style="font-variant:normal;font-stretch:normal;fill:#111111;font-family:Abel;-inkscape-font-specification:Abel"
             id="path18108"
             inkscape:connector-curvature="0" />
          <path
             d="m -2854.1529,3224.4404 0,-17.4513 1.5699,0 0,17.4513 -1.5699,0"
             style="font-variant:normal;font-stretch:normal;fill:#111111;font-family:Abel;-inkscape-font-specification:Abel"
             id="path18110"
             inkscape:connector-curvature="0" />
          <path
             d="m -2842.8594,3224.4404 0,-17.4513 9.8209,0 0,1.4969 -8.251,0 0,6.4864 6.6812,0 0,1.4969 -6.6812,0 0,6.4743 8.251,0 0,1.4968 -9.8209,0"
             style="font-variant:normal;font-stretch:normal;fill:#111111;font-family:Abel;-inkscape-font-specification:Abel"
             id="path18112"
             inkscape:connector-curvature="0" />
          <path
             d="m -2821.0635,3224.4404 -7.2775,-12.7051 -0.146,-0.7546 0,13.4597 -1.5699,0 0,-17.4513 0.8154,0 7.2775,12.7173 0.1582,0.7424 0,-13.4597 1.5699,0 0,17.4513 -0.8276,0"
             style="font-variant:normal;font-stretch:normal;fill:#111111;font-family:Abel;-inkscape-font-specification:Abel"
             id="path18114"
             inkscape:connector-curvature="0" />
          <path
             d="m -2806.6667,3220.4001 c 0,0.5923 -0.1136,1.148 -0.3408,1.6672 -0.219,0.5193 -0.5233,0.9736 -0.9127,1.363 -0.3895,0.3895 -0.8438,0.6978 -1.363,0.9249 -0.5193,0.2191 -1.075,0.3286 -1.6673,0.3286 l -1.2413,0 c -0.5922,0 -1.152,-0.1095 -1.6794,-0.3286 -0.5192,-0.2271 -0.9736,-0.5354 -1.363,-0.9249 -0.3894,-0.3894 -0.6977,-0.8437 -0.9249,-1.363 -0.219,-0.5192 -0.3286,-1.0749 -0.3286,-1.6672 l 0,-9.3707 c 0,-0.5922 0.1096,-1.148 0.3286,-1.6672 0.2272,-0.5192 0.5355,-0.9736 0.9249,-1.363 0.3894,-0.3894 0.8438,-0.6937 1.363,-0.9128 0.5274,-0.2271 1.0872,-0.3407 1.6794,-0.3407 l 1.2413,0 c 0.5923,0 1.148,0.1136 1.6673,0.3407 0.5192,0.2191 0.9735,0.5234 1.363,0.9128 0.3894,0.3894 0.6937,0.8438 0.9127,1.363 0.2272,0.5192 0.3408,1.075 0.3408,1.6672 l 0,0.7059 -1.5699,0.2434 0,-0.9493 c 0,-0.3894 -0.073,-0.7504 -0.2191,-1.0831 -0.146,-0.3407 -0.3448,-0.6368 -0.5963,-0.8884 -0.2515,-0.2515 -0.5476,-0.4502 -0.8884,-0.5963 -0.3326,-0.146 -0.6937,-0.219 -1.0831,-0.219 l -1.0953,0 c -0.3894,0 -0.7545,0.073 -1.0952,0.219 -0.3327,0.1461 -0.6288,0.3448 -0.8884,0.5963 -0.2515,0.2516 -0.4503,0.5477 -0.5963,0.8884 -0.1461,0.3327 -0.2191,0.6937 -0.2191,1.0831 l 0,9.3707 c 0,0.3894 0.073,0.7545 0.2191,1.0953 0.146,0.3326 0.3448,0.6287 0.5963,0.8884 0.2596,0.2515 0.5557,0.4502 0.8884,0.5963 0.3407,0.146 0.7058,0.219 1.0952,0.219 l 1.0953,0 c 0.3894,0 0.7505,-0.073 1.0831,-0.219 0.3408,-0.1461 0.6369,-0.3448 0.8884,-0.5963 0.2515,-0.2597 0.4503,-0.5558 0.5963,-0.8884 0.146,-0.3408 0.2191,-0.7059 0.2191,-1.0953 l 0,-0.9492 1.5699,0.2555 0,0.6937 0,0"
             style="font-variant:normal;font-stretch:normal;fill:#111111;font-family:Abel;-inkscape-font-specification:Abel"
             id="path18116"
             inkscape:connector-curvature="0" />
          <path
             d="m -2793.6208,3220.4001 c 0,0.5923 -0.1136,1.148 -0.3408,1.6672 -0.219,0.5193 -0.5233,0.9736 -0.9127,1.363 -0.3894,0.3895 -0.8438,0.6978 -1.363,0.9249 -0.5193,0.2191 -1.075,0.3286 -1.6673,0.3286 l -1.2413,0 c -0.5922,0 -1.152,-0.1095 -1.6794,-0.3286 -0.5192,-0.2271 -0.9736,-0.5354 -1.363,-0.9249 -0.3894,-0.3894 -0.6977,-0.8437 -0.9249,-1.363 -0.219,-0.5192 -0.3286,-1.0749 -0.3286,-1.6672 l 0,-13.411 1.5699,0 0,13.411 c 0,0.3894 0.073,0.7545 0.2191,1.0953 0.146,0.3326 0.3448,0.6287 0.5963,0.8884 0.2596,0.2515 0.5557,0.4502 0.8884,0.5963 0.3407,0.146 0.7058,0.219 1.0953,0.219 l 1.0952,0 c 0.3895,0 0.7505,-0.073 1.0831,-0.219 0.3408,-0.1461 0.6369,-0.3448 0.8884,-0.5963 0.2515,-0.2597 0.4503,-0.5558 0.5963,-0.8884 0.1461,-0.3408 0.2191,-0.7059 0.2191,-1.0953 l 0,-13.411 1.5699,0 0,13.411 0,0"
             style="font-variant:normal;font-stretch:normal;fill:#111111;font-family:Abel;-inkscape-font-specification:Abel"
             id="path18118"
             inkscape:connector-curvature="0" />
          <path
             d="m -2789.8482,3224.4404 0,-17.4513 9.8209,0 0,1.4969 -8.251,0 0,6.4864 6.6811,0 0,1.4969 -6.6811,0 0,6.4743 8.251,0 0,1.4968 -9.8209,0"
             style="font-variant:normal;font-stretch:normal;fill:#111111;font-family:Abel;-inkscape-font-specification:Abel"
             id="path18120"
             inkscape:connector-curvature="0" />
          <path
             d="m -2768.0523,3224.4404 -7.2775,-12.7051 -0.146,-0.7546 0,13.4597 -1.5699,0 0,-17.4513 0.8154,0 7.2774,12.7173 0.1583,0.7424 0,-13.4597 1.5698,0 0,17.4513 -0.8275,0"
             style="font-variant:normal;font-stretch:normal;fill:#111111;font-family:Abel;-inkscape-font-specification:Abel"
             id="path18122"
             inkscape:connector-curvature="0" />
          <path
             d="m -2758.9859,3208.486 0,15.9544 -1.5699,0 0,-15.9544 -4.162,0 0,-1.4969 9.894,0 0,1.4969 -4.1621,0"
             style="font-variant:normal;font-stretch:normal;fill:#111111;font-family:Abel;-inkscape-font-specification:Abel"
             id="path18124"
             inkscape:connector-curvature="0" />
          <path
             d="m -2744.1145,3224.4404 -4.734,-7.4478 -2.1541,0 0,7.4478 -1.5698,0 0,-17.4513 5.5372,0 c 0.5922,0 1.148,0.1136 1.6672,0.3407 0.5192,0.2191 0.9736,0.5234 1.363,0.9128 0.3894,0.3894 0.6937,0.8478 0.9127,1.3751 0.2272,0.5193 0.3408,1.075 0.3408,1.6673 l 0,1.4117 c 0,0.5922 -0.1136,1.1521 -0.3408,1.6794 -0.219,0.5192 -0.5233,0.9736 -0.9127,1.363 -0.3894,0.3894 -0.8438,0.6977 -1.363,0.9249 -0.5192,0.2191 -1.075,0.3286 -1.6672,0.3286 l 4.734,7.4478 -1.8133,0 m -0.2069,-13.1554 c 0,-0.3894 -0.073,-0.7505 -0.2191,-1.0831 -0.146,-0.3407 -0.3448,-0.6369 -0.5963,-0.8884 -0.2515,-0.2596 -0.5476,-0.4624 -0.8884,-0.6085 -0.3326,-0.146 -0.6936,-0.219 -1.0831,-0.219 l -3.8943,0 0,7.0097 3.8943,0 c 0.3895,0 0.7505,-0.073 1.0831,-0.219 0.3408,-0.1461 0.6369,-0.3448 0.8884,-0.5964 0.2515,-0.2596 0.4503,-0.5557 0.5963,-0.8884 0.1461,-0.3407 0.2191,-0.7058 0.2191,-1.0952 l 0,-1.4117"
             style="font-variant:normal;font-stretch:normal;fill:#111111;font-family:Abel;-inkscape-font-specification:Abel"
             id="path18126"
             inkscape:connector-curvature="0" />
          <path
             d="m -2729.7543,3220.4001 c 0,0.5923 -0.1136,1.148 -0.3407,1.6672 -0.2191,0.5193 -0.5233,0.9736 -0.9127,1.363 -0.3895,0.3895 -0.8438,0.6978 -1.3631,0.9249 -0.5192,0.2191 -1.0749,0.3286 -1.6672,0.3286 l -1.2413,0 c -0.5923,0 -1.1521,-0.1095 -1.6794,-0.3286 -0.5193,-0.2271 -0.9736,-0.5354 -1.363,-0.9249 -0.3895,-0.3894 -0.6978,-0.8437 -0.9249,-1.363 -0.2191,-0.5192 -0.3286,-1.0749 -0.3286,-1.6672 l 0,-9.3707 c 0,-0.5922 0.1095,-1.148 0.3286,-1.6672 0.2271,-0.5192 0.5354,-0.9736 0.9249,-1.363 0.3894,-0.3894 0.8437,-0.6937 1.363,-0.9128 0.5273,-0.2271 1.0871,-0.3407 1.6794,-0.3407 l 1.2413,0 c 0.5923,0 1.148,0.1136 1.6672,0.3407 0.5193,0.2191 0.9736,0.5234 1.3631,0.9128 0.3894,0.3894 0.6936,0.8438 0.9127,1.363 0.2271,0.5192 0.3407,1.075 0.3407,1.6672 l 0,9.3707 0,0 m -1.5699,-9.3707 c 0,-0.3894 -0.073,-0.7504 -0.219,-1.0831 -0.1461,-0.3407 -0.3448,-0.6368 -0.5963,-0.8884 -0.2515,-0.2515 -0.5477,-0.4502 -0.8884,-0.5963 -0.3327,-0.146 -0.6937,-0.219 -1.0831,-0.219 l -1.0953,0 c -0.3894,0 -0.7545,0.073 -1.0953,0.219 -0.3326,0.1461 -0.6287,0.3448 -0.8883,0.5963 -0.2516,0.2516 -0.4503,0.5477 -0.5964,0.8884 -0.146,0.3327 -0.219,0.6937 -0.219,1.0831 l 0,9.3707 c 0,0.3894 0.073,0.7545 0.219,1.0953 0.1461,0.3326 0.3448,0.6287 0.5964,0.8884 0.2596,0.2515 0.5557,0.4502 0.8883,0.5963 0.3408,0.146 0.7059,0.219 1.0953,0.219 l 1.0953,0 c 0.3894,0 0.7504,-0.073 1.0831,-0.219 0.3407,-0.1461 0.6369,-0.3448 0.8884,-0.5963 0.2515,-0.2597 0.4502,-0.5558 0.5963,-0.8884 0.146,-0.3408 0.219,-0.7059 0.219,-1.0953 l 0,-9.3707"
             style="font-variant:normal;font-stretch:normal;fill:#111111;font-family:Abel;-inkscape-font-specification:Abel"
             id="path18128"
             inkscape:connector-curvature="0" />
          <path
             d="m -2710.6722,3220.4001 c 0,0.5923 -0.1136,1.148 -0.3407,1.6672 -0.2191,0.5193 -0.5233,0.9736 -0.9128,1.363 -0.3894,0.3895 -0.8437,0.6978 -1.363,0.9249 -0.5192,0.2191 -1.075,0.3286 -1.6672,0.3286 l -1.2413,0 c -0.5923,0 -1.1521,-0.1095 -1.6794,-0.3286 -0.5193,-0.2271 -0.9736,-0.5354 -1.3631,-0.9249 -0.3894,-0.3894 -0.6977,-0.8437 -0.9249,-1.363 -0.219,-0.5192 -0.3285,-1.0749 -0.3285,-1.6672 l 0,-9.3707 c 0,-0.5922 0.1095,-1.148 0.3285,-1.6672 0.2272,-0.5192 0.5355,-0.9736 0.9249,-1.363 0.3895,-0.3894 0.8438,-0.6937 1.3631,-0.9128 0.5273,-0.2271 1.0871,-0.3407 1.6794,-0.3407 l 1.2413,0 c 0.5922,0 1.148,0.1136 1.6672,0.3407 0.5193,0.2191 0.9736,0.5234 1.363,0.9128 0.3895,0.3894 0.6937,0.8438 0.9128,1.363 0.2271,0.5192 0.3407,1.075 0.3407,1.6672 l 0,0.7059 -1.5699,0.2434 0,-0.9493 c 0,-0.3894 -0.073,-0.7504 -0.219,-1.0831 -0.1461,-0.3407 -0.3449,-0.6368 -0.5964,-0.8884 -0.2515,-0.2515 -0.5476,-0.4502 -0.8883,-0.5963 -0.3327,-0.146 -0.6937,-0.219 -1.0831,-0.219 l -1.0953,0 c -0.3894,0 -0.7545,0.073 -1.0953,0.219 -0.3326,0.1461 -0.6288,0.3448 -0.8884,0.5963 -0.2515,0.2516 -0.4503,0.5477 -0.5963,0.8884 -0.146,0.3327 -0.219,0.6937 -0.219,1.0831 l 0,9.3707 c 0,0.3894 0.073,0.7545 0.219,1.0953 0.146,0.3326 0.3448,0.6287 0.5963,0.8884 0.2596,0.2515 0.5558,0.4502 0.8884,0.5963 0.3408,0.146 0.7059,0.219 1.0953,0.219 l 1.0953,0 c 0.3894,0 0.7504,-0.073 1.0831,-0.219 0.3407,-0.1461 0.6368,-0.3448 0.8883,-0.5963 0.2515,-0.2597 0.4503,-0.5558 0.5964,-0.8884 0.146,-0.3408 0.219,-0.7059 0.219,-1.0953 l 0,-0.9492 1.5699,0.2555 0,0.6937 0,0"
             style="font-variant:normal;font-stretch:normal;fill:#111111;font-family:Abel;-inkscape-font-specification:Abel"
             id="path18130"
             inkscape:connector-curvature="0" />
          <path
             d="m -2707.1917,3224.4404 0,-17.4513 9.821,0 0,1.4969 -8.2511,0 0,6.4864 6.6812,0 0,1.4969 -6.6812,0 0,6.4743 8.2511,0 0,1.4968 -9.821,0"
             style="font-variant:normal;font-stretch:normal;fill:#111111;font-family:Abel;-inkscape-font-specification:Abel"
             id="path18132"
             inkscape:connector-curvature="0" />
          <path
             d="m -2685.3957,3224.4404 -7.2775,-12.7051 -0.1461,-0.7546 0,13.4597 -1.5698,0 0,-17.4513 0.8153,0 7.2775,12.7173 0.1582,0.7424 0,-13.4597 1.5699,0 0,17.4513 -0.8275,0"
             style="font-variant:normal;font-stretch:normal;fill:#111111;font-family:Abel;-inkscape-font-specification:Abel"
             id="path18134"
             inkscape:connector-curvature="0" />
          <path
             d="m -2676.3293,3208.486 0,15.9544 -1.5699,0 0,-15.9544 -4.162,0 0,-1.4969 9.8939,0 0,1.4969 -4.162,0"
             style="font-variant:normal;font-stretch:normal;fill:#111111;font-family:Abel;-inkscape-font-specification:Abel"
             id="path18136"
             inkscape:connector-curvature="0" />
          <path
             d="m -2661.458,3224.4404 -4.734,-7.4478 -2.154,0 0,7.4478 -1.5699,0 0,-17.4513 5.5372,0 c 0.5923,0 1.148,0.1136 1.6673,0.3407 0.5192,0.2191 0.9735,0.5234 1.363,0.9128 0.3894,0.3894 0.6936,0.8478 0.9127,1.3751 0.2272,0.5193 0.3407,1.075 0.3407,1.6673 l 0,1.4117 c 0,0.5922 -0.1135,1.1521 -0.3407,1.6794 -0.2191,0.5192 -0.5233,0.9736 -0.9127,1.363 -0.3895,0.3894 -0.8438,0.6977 -1.363,0.9249 -0.5193,0.2191 -1.075,0.3286 -1.6673,0.3286 l 4.734,7.4478 -1.8133,0 m -0.2068,-13.1554 c -1e-4,-0.3894 -0.073,-0.7505 -0.2191,-1.0831 -0.146,-0.3407 -0.3448,-0.6369 -0.5963,-0.8884 -0.2515,-0.2596 -0.5477,-0.4624 -0.8884,-0.6085 -0.3326,-0.146 -0.6937,-0.219 -1.0831,-0.219 l -3.8943,0 0,7.0097 3.8943,0 c 0.3894,0 0.7505,-0.073 1.0831,-0.219 0.3407,-0.1461 0.6369,-0.3448 0.8884,-0.5964 0.2515,-0.2596 0.4503,-0.5557 0.5963,-0.8884 0.146,-0.3407 0.219,-0.7058 0.2191,-1.0952 l 0,-1.4117"
             style="font-variant:normal;font-stretch:normal;fill:#111111;font-family:Abel;-inkscape-font-specification:Abel"
             id="path18138"
             inkscape:connector-curvature="0" />
          <path
             d="m -2647.0977,3220.4001 c 0,0.5923 -0.1136,1.148 -0.3408,1.6672 -0.219,0.5193 -0.5233,0.9736 -0.9127,1.363 -0.3894,0.3895 -0.8438,0.6978 -1.363,0.9249 -0.5192,0.2191 -1.075,0.3286 -1.6672,0.3286 l -1.2414,0 c -0.5922,0 -1.152,-0.1095 -1.6794,-0.3286 -0.5192,-0.2271 -0.9735,-0.5354 -1.363,-0.9249 -0.3894,-0.3894 -0.6977,-0.8437 -0.9249,-1.363 -0.219,-0.5192 -0.3286,-1.0749 -0.3286,-1.6672 l 0,-9.3707 c 0,-0.5922 0.1096,-1.148 0.3286,-1.6672 0.2272,-0.5192 0.5355,-0.9736 0.9249,-1.363 0.3895,-0.3894 0.8438,-0.6937 1.363,-0.9128 0.5274,-0.2271 1.0872,-0.3407 1.6794,-0.3407 l 1.2414,0 c 0.5922,0 1.148,0.1136 1.6672,0.3407 0.5192,0.2191 0.9736,0.5234 1.363,0.9128 0.3894,0.3894 0.6937,0.8438 0.9127,1.363 0.2272,0.5192 0.3408,1.075 0.3408,1.6672 l 0,9.3707 0,0 m -1.5699,-9.3707 c 0,-0.3894 -0.073,-0.7504 -0.2191,-1.0831 -0.146,-0.3407 -0.3448,-0.6368 -0.5963,-0.8884 -0.2515,-0.2515 -0.5476,-0.4502 -0.8884,-0.5963 -0.3326,-0.146 -0.6936,-0.219 -1.0831,-0.219 l -1.0952,0 c -0.3895,0 -0.7546,0.073 -1.0953,0.219 -0.3326,0.1461 -0.6288,0.3448 -0.8884,0.5963 -0.2515,0.2516 -0.4503,0.5477 -0.5963,0.8884 -0.146,0.3327 -0.2191,0.6937 -0.2191,1.0831 l 0,9.3707 c 0,0.3894 0.073,0.7545 0.2191,1.0953 0.146,0.3326 0.3448,0.6287 0.5963,0.8884 0.2596,0.2515 0.5558,0.4502 0.8884,0.5963 0.3407,0.146 0.7058,0.219 1.0953,0.219 l 1.0952,0 c 0.3895,0 0.7505,-0.073 1.0831,-0.219 0.3408,-0.1461 0.6369,-0.3448 0.8884,-0.5963 0.2515,-0.2597 0.4503,-0.5558 0.5963,-0.8884 0.1461,-0.3408 0.2191,-0.7059 0.2191,-1.0953 l 0,-9.3707"
             style="font-variant:normal;font-stretch:normal;fill:#111111;font-family:Abel;-inkscape-font-specification:Abel"
             id="path18140"
             inkscape:connector-curvature="0" />
          <path
             d="m -2636.7778,3220.3758 -5.5251,0 -1.1439,4.0646 -1.6307,0 5.1112,-17.4513 0.8276,0 5.1356,17.4513 -1.6186,0 -1.1561,-4.0646 m -5.0991,-1.4969 4.6853,0 -2.3001,-8.0442 -0.049,-0.645 -0.049,0.645 -2.2879,8.0442"
             style="font-variant:normal;font-stretch:normal;fill:#111111;font-family:Abel;-inkscape-font-specification:Abel"
             id="path18142"
             inkscape:connector-curvature="0" />
          <path
             d="m -2620.9937,3224.4404 0,-11.9628 -0.1096,0.7424 -4.0525,11.2204 -0.8275,0 -4.089,-11.2204 -0.097,-0.7424 0,11.9628 -1.5699,0 0,-17.4513 0.8154,0 5.2938,14.3115 0.049,0.645 0.049,-0.645 5.2816,-14.3115 0.8276,0 0,17.4513 -1.5699,0"
             style="font-variant:normal;font-stretch:normal;fill:#111111;font-family:Abel;-inkscape-font-specification:Abel"
             id="path18144"
             inkscape:connector-curvature="0" />
          <path
             d="m -2615.4322,3224.4404 0,-17.4513 9.821,0 0,1.4969 -8.2511,0 0,6.4864 6.6812,0 0,1.4969 -6.6812,0 0,6.4743 8.2511,0 0,1.4968 -9.821,0"
             style="font-variant:normal;font-stretch:normal;fill:#111111;font-family:Abel;-inkscape-font-specification:Abel"
             id="path18146"
             inkscape:connector-curvature="0" />
          <path
             d="m -2594.4273,3224.4404 -4.734,-7.4478 -2.154,0 0,7.4478 -1.5699,0 0,-17.4513 5.5372,0 c 0.5922,0 1.148,0.1136 1.6672,0.3407 0.5193,0.2191 0.9736,0.5234 1.363,0.9128 0.3895,0.3894 0.6937,0.8478 0.9128,1.3751 0.2271,0.5193 0.3407,1.075 0.3407,1.6673 l 0,1.4117 c 0,0.5922 -0.1136,1.1521 -0.3407,1.6794 -0.2191,0.5192 -0.5233,0.9736 -0.9128,1.363 -0.3894,0.3894 -0.8437,0.6977 -1.363,0.9249 -0.5192,0.2191 -1.075,0.3286 -1.6672,0.3286 l 4.734,7.4478 -1.8133,0 m -0.2069,-13.1554 c 0,-0.3894 -0.073,-0.7505 -0.219,-1.0831 -0.1461,-0.3407 -0.3448,-0.6369 -0.5963,-0.8884 -0.2516,-0.2596 -0.5477,-0.4624 -0.8884,-0.6085 -0.3327,-0.146 -0.6937,-0.219 -1.0831,-0.219 l -3.8943,0 0,7.0097 3.8943,0 c 0.3894,0 0.7504,-0.073 1.0831,-0.219 0.3407,-0.1461 0.6368,-0.3448 0.8884,-0.5964 0.2515,-0.2596 0.4502,-0.5557 0.5963,-0.8884 0.146,-0.3407 0.219,-0.7058 0.219,-1.0952 l 0,-1.4117"
             style="font-variant:normal;font-stretch:normal;fill:#111111;font-family:Abel;-inkscape-font-specification:Abel"
             id="path18148"
             inkscape:connector-curvature="0" />
          <path
             d="m -2589.6324,3224.4404 0,-17.4513 1.5699,0 0,17.4513 -1.5699,0"
             style="font-variant:normal;font-stretch:normal;fill:#111111;font-family:Abel;-inkscape-font-specification:Abel"
             id="path18150"
             inkscape:connector-curvature="0" />
          <path
             d="m -2574.5177,3220.4001 c 0,0.5923 -0.1136,1.148 -0.3407,1.6672 -0.2191,0.5193 -0.5233,0.9736 -0.9128,1.363 -0.3894,0.3895 -0.8437,0.6978 -1.363,0.9249 -0.5192,0.2191 -1.075,0.3286 -1.6672,0.3286 l -1.2413,0 c -0.5923,0 -1.1521,-0.1095 -1.6794,-0.3286 -0.5193,-0.2271 -0.9736,-0.5354 -1.363,-0.9249 -0.3895,-0.3894 -0.6978,-0.8437 -0.9249,-1.363 -0.2191,-0.5192 -0.3286,-1.0749 -0.3286,-1.6672 l 0,-9.3707 c 0,-0.5922 0.1095,-1.148 0.3286,-1.6672 0.2271,-0.5192 0.5354,-0.9736 0.9249,-1.363 0.3894,-0.3894 0.8437,-0.6937 1.363,-0.9128 0.5273,-0.2271 1.0871,-0.3407 1.6794,-0.3407 l 1.2413,0 c 0.5922,0 1.148,0.1136 1.6672,0.3407 0.5193,0.2191 0.9736,0.5234 1.363,0.9128 0.3895,0.3894 0.6937,0.8438 0.9128,1.363 0.2271,0.5192 0.3407,1.075 0.3407,1.6672 l 0,0.7059 -1.5699,0.2434 0,-0.9493 c 0,-0.3894 -0.073,-0.7504 -0.219,-1.0831 -0.1461,-0.3407 -0.3448,-0.6368 -0.5963,-0.8884 -0.2516,-0.2515 -0.5477,-0.4502 -0.8884,-0.5963 -0.3327,-0.146 -0.6937,-0.219 -1.0831,-0.219 l -1.0953,0 c -0.3894,0 -0.7545,0.073 -1.0953,0.219 -0.3326,0.1461 -0.6287,0.3448 -0.8884,0.5963 -0.2515,0.2516 -0.4502,0.5477 -0.5963,0.8884 -0.146,0.3327 -0.219,0.6937 -0.219,1.0831 l 0,9.3707 c 0,0.3894 0.073,0.7545 0.219,1.0953 0.1461,0.3326 0.3448,0.6287 0.5963,0.8884 0.2597,0.2515 0.5558,0.4502 0.8884,0.5963 0.3408,0.146 0.7059,0.219 1.0953,0.219 l 1.0953,0 c 0.3894,0 0.7504,-0.073 1.0831,-0.219 0.3407,-0.1461 0.6368,-0.3448 0.8884,-0.5963 0.2515,-0.2597 0.4502,-0.5558 0.5963,-0.8884 0.146,-0.3408 0.219,-0.7059 0.219,-1.0953 l 0,-0.9492 1.5699,0.2555 0,0.6937 0,0"
             style="font-variant:normal;font-stretch:normal;fill:#111111;font-family:Abel;-inkscape-font-specification:Abel"
             id="path18152"
             inkscape:connector-curvature="0" />
          <path
             d="m -2564.4898,3220.3758 -5.5251,0 -1.1439,4.0646 -1.6308,0 5.1113,-17.4513 0.8275,0 5.1357,17.4513 -1.6186,0 -1.1561,-4.0646 m -5.0991,-1.4969 4.6853,0 -2.3001,-8.0442 -0.049,-0.645 -0.049,0.645 -2.2879,8.0442"
             style="font-variant:normal;font-stretch:normal;fill:#111111;font-family:Abel;-inkscape-font-specification:Abel"
             id="path18154"
             inkscape:connector-curvature="0" />
          <path
             d="m -2550.4582,3224.4404 -7.2775,-12.7051 -0.146,-0.7546 0,13.4597 -1.5699,0 0,-17.4513 0.8154,0 7.2775,12.7173 0.1582,0.7424 0,-13.4597 1.5699,0 0,17.4513 -0.8276,0"
             style="font-variant:normal;font-stretch:normal;fill:#111111;font-family:Abel;-inkscape-font-specification:Abel"
             id="path18156"
             inkscape:connector-curvature="0" />
          <path
             d="m -2536.0614,3220.4001 c -10e-5,0.5923 -0.1136,1.148 -0.3408,1.6672 -0.2191,0.5193 -0.5233,0.9736 -0.9127,1.363 -0.3895,0.3895 -0.8438,0.6978 -1.363,0.9249 -0.5193,0.2191 -1.075,0.3286 -1.6673,0.3286 l -1.2413,0 c -0.5922,0 -1.1521,-0.1095 -1.6794,-0.3286 -0.5192,-0.2271 -0.9736,-0.5354 -1.363,-0.9249 -0.3894,-0.3894 -0.6977,-0.8437 -0.9249,-1.363 -0.2191,-0.5192 -0.3286,-1.0749 -0.3286,-1.6672 l 0,-9.3707 c 0,-0.5922 0.1095,-1.148 0.3286,-1.6672 0.2272,-0.5192 0.5355,-0.9736 0.9249,-1.363 0.3894,-0.3894 0.8438,-0.6937 1.363,-0.9128 0.5273,-0.2271 1.0872,-0.3407 1.6794,-0.3407 l 1.2413,0 c 0.5923,0 1.148,0.1136 1.6673,0.3407 0.5192,0.2191 0.9735,0.5234 1.363,0.9128 0.3894,0.3894 0.6936,0.8438 0.9127,1.363 0.2272,0.5192 0.3407,1.075 0.3408,1.6672 l 0,9.3707 0,0 m -1.5699,-9.3707 c 0,-0.3894 -0.073,-0.7504 -0.2191,-1.0831 -0.146,-0.3407 -0.3448,-0.6368 -0.5963,-0.8884 -0.2515,-0.2515 -0.5476,-0.4502 -0.8884,-0.5963 -0.3326,-0.146 -0.6937,-0.219 -1.0831,-0.219 l -1.0953,0 c -0.3894,0 -0.7545,0.073 -1.0952,0.219 -0.3327,0.1461 -0.6288,0.3448 -0.8884,0.5963 -0.2515,0.2516 -0.4503,0.5477 -0.5963,0.8884 -0.1461,0.3327 -0.2191,0.6937 -0.2191,1.0831 l 0,9.3707 c 0,0.3894 0.073,0.7545 0.2191,1.0953 0.146,0.3326 0.3448,0.6287 0.5963,0.8884 0.2596,0.2515 0.5557,0.4502 0.8884,0.5963 0.3407,0.146 0.7058,0.219 1.0952,0.219 l 1.0953,0 c 0.3894,0 0.7505,-0.073 1.0831,-0.219 0.3408,-0.1461 0.6369,-0.3448 0.8884,-0.5963 0.2515,-0.2597 0.4503,-0.5558 0.5963,-0.8884 0.146,-0.3408 0.2191,-0.7059 0.2191,-1.0953 l 0,-9.3707"
             style="font-variant:normal;font-stretch:normal;fill:#111111;font-family:Abel;-inkscape-font-specification:Abel"
             id="path18158"
             inkscape:connector-curvature="0" />
        </g>
        <g
           style="font-size:43.83532333px;font-style:normal;font-weight:normal;line-height:125%;letter-spacing:0px;word-spacing:0px;fill:#111111;fill-opacity:1;stroke:none;font-family:Sans"
           id="text17882">
          <path
             d="m -2861.3164,3251.9468 c 0,1.0416 -0.1997,2.0191 -0.5993,2.9323 -0.3853,0.9132 -0.9204,1.7123 -1.6053,2.3972 -0.6849,0.685 -1.4911,1.2272 -2.4186,1.6267 -0.9133,0.3853 -1.8907,0.578 -2.9324,0.578 l -9.7174,0 0,-30.6933 9.7174,0 c 1.0417,0 2.0191,0.1998 2.9324,0.5993 0.9275,0.3853 1.7337,0.9204 2.4186,1.6053 0.6849,0.6849 1.22,1.4911 1.6053,2.4186 0.3996,0.9133 0.5993,1.8907 0.5993,2.9324 l 0,15.6035 0,0 m -2.7611,-15.6035 c 0,-0.6849 -0.1284,-1.3199 -0.3852,-1.905 -0.2569,-0.5993 -0.6136,-1.1201 -1.0702,-1.5625 -0.4424,-0.4566 -0.9632,-0.8133 -1.5625,-1.0702 -0.5851,-0.2568 -1.2201,-0.3852 -1.905,-0.3852 l -6.8278,0 0,25.4279 6.8278,0 c 0.6849,0 1.3199,-0.1285 1.905,-0.3853 0.5993,-0.2568 1.1201,-0.6064 1.5625,-1.0488 0.4566,-0.4423 0.8133,-0.956 1.0702,-1.5411 0.2568,-0.5993 0.3852,-1.2414 0.3852,-1.9263 l 0,-15.6035"
             style="font-variant:normal;font-stretch:normal;fill:#111111;font-family:Abel;-inkscape-font-specification:Abel"
             id="path18161"
             inkscape:connector-curvature="0" />
          <path
             d="m -2854.7025,3259.481 0,-30.6933 17.273,0 0,2.6327 -14.5119,0 0,11.4083 11.7508,0 0,2.6327 -11.7508,0 0,11.3869 14.5119,0 0,2.6327 -17.273,0"
             style="font-variant:normal;font-stretch:normal;fill:#111111;font-family:Abel;-inkscape-font-specification:Abel"
             id="path18163"
             inkscape:connector-curvature="0" />
          <path
             d="m -2805.2594,3252.3748 c 0,1.0417 -0.214,2.0192 -0.6421,2.9324 -0.4138,0.9132 -0.9775,1.7123 -1.6909,2.3972 -0.6992,0.685 -1.5197,1.2272 -2.4615,1.6267 -0.9275,0.3853 -1.9121,0.5779 -2.9537,0.5779 l -2.2046,0 c -1.0417,0 -2.0334,-0.1926 -2.9752,-0.5779 -0.9275,-0.3995 -1.748,-0.9417 -2.4614,-1.6267 -0.6992,-0.6849 -1.2629,-1.484 -1.6909,-2.3972 -0.4138,-0.9132 -0.6208,-1.8907 -0.6207,-2.9324 l 0,-1.22 2.7611,-0.4495 0,1.6695 c 0,0.685 0.1355,1.3271 0.4066,1.9264 0.2854,0.585 0.6636,1.1059 1.1344,1.5625 0.4709,0.4423 1.0132,0.7919 1.6268,1.0488 0.6278,0.2568 1.2842,0.3853 1.9691,0.3853 l 1.9264,0 c 0.6849,0 1.3341,-0.1285 1.9477,-0.3853 0.6136,-0.2569 1.1558,-0.6065 1.6267,-1.0488 0.4709,-0.4566 0.8419,-0.9775 1.113,-1.5625 0.2854,-0.5993 0.4281,-1.2414 0.4281,-1.9264 l 0,-0.9203 c 0,-1.056 -0.2069,-1.9335 -0.6207,-2.6327 -0.4138,-0.6992 -0.9632,-1.2914 -1.6481,-1.7765 -0.6849,-0.4995 -1.4626,-0.9204 -2.333,-1.2629 -0.8562,-0.3424 -1.7409,-0.6849 -2.6541,-1.0274 -0.9133,-0.3424 -1.8051,-0.7206 -2.6755,-1.1344 -0.8562,-0.4138 -1.6267,-0.9275 -2.3116,-1.5411 -0.685,-0.6278 -1.2343,-1.3912 -1.6482,-2.2902 -0.4138,-0.8989 -0.6207,-2.0048 -0.6207,-3.3176 l 0,-0.5779 c 0,-1.0416 0.1927,-2.0191 0.5779,-2.9324 0.3996,-0.9132 0.9418,-1.7122 1.6267,-2.3972 0.685,-0.6849 1.484,-1.22 2.3973,-1.6053 0.9275,-0.3995 1.9121,-0.5993 2.9537,-0.5993 l 1.9692,0 c 1.0416,0 2.0191,0.1998 2.9323,0.5993 0.9133,0.3853 1.7123,0.9204 2.3973,1.6053 0.6849,0.685 1.22,1.484 1.6053,2.3972 0.3995,0.9133 0.5993,1.8908 0.5993,2.9324 l 0,0.7919 -2.7611,0.4495 0,-1.2414 c 0,-0.6849 -0.1285,-1.3199 -0.3853,-1.905 -0.2569,-0.5993 -0.6065,-1.1201 -1.0488,-1.5625 -0.4423,-0.4423 -0.9632,-0.7919 -1.5625,-1.0488 -0.585,-0.2568 -1.22,-0.3852 -1.9049,-0.3852 l -1.7123,0 c -0.685,0 -1.3271,0.1284 -1.9264,0.3852 -0.5851,0.2569 -1.1059,0.6065 -1.5625,1.0488 -0.4423,0.4424 -0.7919,0.9632 -1.0488,1.5625 -0.2568,0.5851 -0.3853,1.2201 -0.3853,1.905 l 0,0.5779 c 0,0.9846 0.2069,1.8122 0.6208,2.4829 0.4138,0.6706 0.9631,1.2485 1.6481,1.7337 0.6849,0.4709 1.4554,0.8847 2.3116,1.2414 0.8704,0.3425 1.7622,0.6992 2.6755,1.0702 0.9132,0.3568 1.7979,0.7563 2.6541,1.1986 0.8704,0.4281 1.6481,0.9632 2.333,1.6053 0.6849,0.6279 1.2343,1.3984 1.6481,2.3117 0.4138,0.9132 0.6207,2.0262 0.6207,3.339 l 0,0.9203"
             style="font-variant:normal;font-stretch:normal;fill:#111111;font-family:Abel;-inkscape-font-specification:Abel"
             id="path18165"
             inkscape:connector-curvature="0" />
          <path
             d="m -2782.4855,3252.3748 c -1e-4,1.0417 -0.1998,2.0192 -0.5994,2.9324 -0.3852,0.9132 -0.9203,1.7123 -1.6053,2.3972 -0.6849,0.685 -1.484,1.2272 -2.3972,1.6267 -0.9132,0.3853 -1.8907,0.5779 -2.9323,0.5779 l -2.1832,0 c -1.0417,0 -2.0263,-0.1926 -2.9538,-0.5779 -0.9132,-0.3995 -1.7123,-0.9417 -2.3972,-1.6267 -0.685,-0.6849 -1.2272,-1.484 -1.6267,-2.3972 -0.3853,-0.9132 -0.5779,-1.8907 -0.5779,-2.9324 l 0,-16.481 c 0,-1.0416 0.1926,-2.0191 0.5779,-2.9324 0.3995,-0.9132 0.9417,-1.7122 1.6267,-2.3972 0.6849,-0.6849 1.484,-1.22 2.3972,-1.6053 0.9275,-0.3995 1.9121,-0.5993 2.9538,-0.5993 l 2.1832,0 c 1.0416,0 2.0191,0.1998 2.9323,0.5993 0.9132,0.3853 1.7123,0.9204 2.3972,1.6053 0.685,0.685 1.2201,1.484 1.6053,2.3972 0.3996,0.9133 0.5993,1.8908 0.5994,2.9324 l 0,16.481 0,0 m -2.7612,-16.481 c 0,-0.6849 -0.1284,-1.3199 -0.3852,-1.905 -0.2569,-0.5993 -0.6065,-1.1201 -1.0488,-1.5625 -0.4424,-0.4423 -0.9632,-0.7919 -1.5625,-1.0488 -0.5851,-0.2568 -1.2201,-0.3852 -1.905,-0.3852 l -1.9263,0 c -0.685,0 -1.3271,0.1284 -1.9264,0.3852 -0.585,0.2569 -1.1059,0.6065 -1.5625,1.0488 -0.4423,0.4424 -0.7919,0.9632 -1.0488,1.5625 -0.2568,0.5851 -0.3852,1.2201 -0.3852,1.905 l 0,16.481 c 0,0.685 0.1284,1.3271 0.3852,1.9264 0.2569,0.585 0.6065,1.1059 1.0488,1.5625 0.4566,0.4423 0.9775,0.7919 1.5625,1.0488 0.5993,0.2568 1.2414,0.3853 1.9264,0.3853 l 1.9263,0 c 0.6849,0 1.3199,-0.1285 1.905,-0.3853 0.5993,-0.2569 1.1201,-0.6065 1.5625,-1.0488 0.4423,-0.4566 0.7919,-0.9775 1.0488,-1.5625 0.2568,-0.5993 0.3852,-1.2414 0.3852,-1.9264 l 0,-16.481"
             style="font-variant:normal;font-stretch:normal;fill:#111111;font-family:Abel;-inkscape-font-specification:Abel"
             id="path18167"
             inkscape:connector-curvature="0" />
          <path
             d="m -2773.0892,3231.4204 0,11.4083 11.7508,0 0,2.6327 -11.7508,0 0,14.0196 -2.7611,0 0,-30.6933 17.273,0 0,2.6327 -14.5119,0"
             style="font-variant:normal;font-stretch:normal;fill:#111111;font-family:Abel;-inkscape-font-specification:Abel"
             id="path18169"
             inkscape:connector-curvature="0" />
          <path
             d="m -2746.7409,3231.4204 0,28.0606 -2.7611,0 0,-28.0606 -7.3202,0 0,-2.6327 17.4014,0 0,2.6327 -7.3201,0"
             style="font-variant:normal;font-stretch:normal;fill:#111111;font-family:Abel;-inkscape-font-specification:Abel"
             id="path18171"
             inkscape:connector-curvature="0" />
          <path
             d="m -2714.5066,3259.481 -1.434,0 -5.9717,-23.0949 -0.086,-1.1986 -0.1285,1.1986 -5.9289,23.0949 -1.434,0 -8.1549,-30.6933 2.7611,0 6.0145,23.3303 0.086,1.1344 0.086,-1.1344 5.9075,-23.3303 1.5411,0 5.9075,23.3303 0.086,1.1344 0.107,-1.1344 5.9931,-23.3303 2.7611,0 -8.1121,30.6933"
             style="font-variant:normal;font-stretch:normal;fill:#111111;font-family:Abel;-inkscape-font-specification:Abel"
             id="path18173"
             inkscape:connector-curvature="0" />
          <path
             d="m -2691.3046,3252.332 -9.7174,0 -2.012,7.149 -2.8682,0 8.9897,-30.6933 1.4555,0 9.0325,30.6933 -2.8468,0 -2.0333,-7.149 m -8.9683,-2.6327 8.2405,0 -4.0453,-14.148 -0.086,-1.1344 -0.086,1.1344 -4.0239,14.148"
             style="font-variant:normal;font-stretch:normal;fill:#111111;font-family:Abel;-inkscape-font-specification:Abel"
             id="path18175"
             inkscape:connector-curvature="0" />
          <path
             d="m -2668.0171,3259.481 -8.3262,-13.0993 -3.7885,0 0,13.0993 -2.7611,0 0,-30.6933 9.7388,0 c 1.0417,0 2.0191,0.1998 2.9324,0.5993 0.9132,0.3853 1.7123,0.9204 2.3972,1.6053 0.6849,0.6849 1.22,1.4911 1.6053,2.4186 0.3995,0.9133 0.5993,1.8907 0.5993,2.9324 l 0,2.4828 c 0,1.0417 -0.1998,2.0263 -0.5993,2.9538 -0.3853,0.9132 -0.9204,1.7123 -1.6053,2.3972 -0.6849,0.685 -1.484,1.2272 -2.3972,1.6267 -0.9133,0.3853 -1.8907,0.5779 -2.9324,0.5779 l 8.3262,13.0993 -3.1892,0 m -0.3639,-23.1377 c 0,-0.6849 -0.1284,-1.3199 -0.3853,-1.905 -0.2568,-0.5993 -0.6064,-1.1201 -1.0488,-1.5625 -0.4423,-0.4566 -0.9632,-0.8133 -1.5625,-1.0702 -0.585,-0.2568 -1.22,-0.3852 -1.9049,-0.3852 l -6.8493,0 0,12.3286 6.8493,0 c 0.6849,1e-4 1.3199,-0.1284 1.9049,-0.3852 0.5993,-0.2569 1.1202,-0.6065 1.5625,-1.0488 0.4424,-0.4566 0.792,-0.9775 1.0488,-1.5625 0.2569,-0.5993 0.3853,-1.2414 0.3853,-1.9264 l 0,-2.4828"
             style="font-variant:normal;font-stretch:normal;fill:#111111;font-family:Abel;-inkscape-font-specification:Abel"
             id="path18177"
             inkscape:connector-curvature="0" />
          <path
             d="m -2659.584,3259.481 0,-30.6933 17.273,0 0,2.6327 -14.5119,0 0,11.4083 11.7508,0 0,2.6327 -11.7508,0 0,11.3869 14.5119,0 0,2.6327 -17.273,0"
             style="font-variant:normal;font-stretch:normal;fill:#111111;font-family:Abel;-inkscape-font-specification:Abel"
             id="path18179"
             inkscape:connector-curvature="0" />
          <path
             d="m -2627.4138,3259.481 0,-30.6933 2.7611,0 0,28.0606 11.7508,0 0,2.6327 -14.5119,0"
             style="font-variant:normal;font-stretch:normal;fill:#111111;font-family:Abel;-inkscape-font-specification:Abel"
             id="path18181"
             inkscape:connector-curvature="0" />
          <path
             d="m -2608.4713,3259.481 0,-30.6933 2.7611,0 0,30.6933 -2.7611,0"
             style="font-variant:normal;font-stretch:normal;fill:#111111;font-family:Abel;-inkscape-font-specification:Abel"
             id="path18183"
             inkscape:connector-curvature="0" />
          <path
             d="m -2581.4381,3251.9468 c 0,1.0416 -0.1998,2.0191 -0.5993,2.9323 -0.3853,0.9132 -0.9204,1.7123 -1.6053,2.3972 -0.6849,0.685 -1.4912,1.2272 -2.4186,1.6267 -0.9133,0.3853 -1.8907,0.578 -2.9324,0.578 l -9.7174,0 0,-30.6933 9.7174,0 c 1.0417,0 2.0191,0.1998 2.9324,0.5993 0.9274,0.3853 1.7337,0.9204 2.4186,1.6053 0.6849,0.6849 1.22,1.4911 1.6053,2.4186 0.3995,0.9133 0.5993,1.8907 0.5993,2.9324 l 0,0.2996 c 0,0.7278 -0.1,1.427 -0.2996,2.0976 -0.1856,0.6564 -0.4567,1.27 -0.8134,1.8408 -0.3568,0.5707 -0.7777,1.0916 -1.2628,1.5624 -0.4852,0.4567 -1.0274,0.842 -1.6267,1.1559 0.5993,0.3139 1.1415,0.7063 1.6267,1.1772 0.4851,0.4566 0.906,0.9774 1.2628,1.5625 0.3567,0.5708 0.6278,1.1915 0.8134,1.8621 0.1997,0.6564 0.2996,1.3485 0.2996,2.0762 l 0,1.9692 0,0 m -2.7611,-2.4187 c 0,-0.6849 -0.1284,-1.3199 -0.3853,-1.9049 -0.2568,-0.5993 -0.6136,-1.1202 -1.0702,-1.5625 -0.4423,-0.4424 -0.9632,-0.792 -1.5625,-1.0488 -0.585,-0.2569 -1.22,-0.3853 -1.9049,-0.3853 l -6.8279,0 0,12.2217 6.8279,0 c 0.6849,0 1.3199,-0.1285 1.9049,-0.3853 0.5993,-0.2568 1.1202,-0.6064 1.5625,-1.0488 0.4566,-0.4423 0.8134,-0.956 1.0702,-1.5411 0.2569,-0.5993 0.3853,-1.2414 0.3853,-1.9263 l 0,-2.4187 m 0,-13.1848 c 0,-0.6849 -0.1284,-1.3199 -0.3853,-1.905 -0.2568,-0.5993 -0.6136,-1.1201 -1.0702,-1.5625 -0.4423,-0.4566 -0.9632,-0.8133 -1.5625,-1.0702 -0.585,-0.2568 -1.22,-0.3852 -1.9049,-0.3852 l -6.8279,0 0,10.5735 6.8279,0 c 0.6849,0 1.3199,-0.1284 1.9049,-0.3853 0.5993,-0.2568 1.1202,-0.6064 1.5625,-1.0487 0.4566,-0.4566 0.8134,-0.9775 1.0702,-1.5625 0.2569,-0.5993 0.3853,-1.2414 0.3853,-1.9264 l 0,-0.7277"
             style="font-variant:normal;font-stretch:normal;fill:#111111;font-family:Abel;-inkscape-font-specification:Abel"
             id="path18185"
             inkscape:connector-curvature="0" />
          <path
             d="m -2561.7679,3259.481 -8.3261,-13.0993 -3.7885,0 0,13.0993 -2.7611,0 0,-30.6933 9.7388,0 c 1.0416,0 2.0191,0.1998 2.9323,0.5993 0.9133,0.3853 1.7123,0.9204 2.3973,1.6053 0.6849,0.6849 1.22,1.4911 1.6053,2.4186 0.3995,0.9133 0.5993,1.8907 0.5993,2.9324 l 0,2.4828 c 0,1.0417 -0.1998,2.0263 -0.5993,2.9538 -0.3853,0.9132 -0.9204,1.7123 -1.6053,2.3972 -0.685,0.685 -1.484,1.2272 -2.3973,1.6267 -0.9132,0.3853 -1.8907,0.5779 -2.9323,0.5779 l 8.3261,13.0993 -3.1892,0 m -0.3638,-23.1377 c 0,-0.6849 -0.1285,-1.3199 -0.3853,-1.905 -0.2569,-0.5993 -0.6065,-1.1201 -1.0488,-1.5625 -0.4423,-0.4566 -0.9632,-0.8133 -1.5625,-1.0702 -0.585,-0.2568 -1.22,-0.3852 -1.9049,-0.3852 l -6.8493,0 0,12.3286 6.8493,0 c 0.6849,1e-4 1.3199,-0.1284 1.9049,-0.3852 0.5993,-0.2569 1.1202,-0.6065 1.5625,-1.0488 0.4423,-0.4566 0.7919,-0.9775 1.0488,-1.5625 0.2568,-0.5993 0.3853,-1.2414 0.3853,-1.9264 l 0,-2.4828"
             style="font-variant:normal;font-stretch:normal;fill:#111111;font-family:Abel;-inkscape-font-specification:Abel"
             id="path18187"
             inkscape:connector-curvature="0" />
          <path
             d="m -2553.3347,3259.481 0,-30.6933 17.273,0 0,2.6327 -14.5119,0 0,11.4083 11.7508,0 0,2.6327 -11.7508,0 0,11.3869 14.5119,0 0,2.6327 -17.273,0"
             style="font-variant:normal;font-stretch:normal;fill:#111111;font-family:Abel;-inkscape-font-specification:Abel"
             id="path18189"
             inkscape:connector-curvature="0" />
        </g>
        <path
           id="path17887"
           d="m -2568.2902,3113.7163 3.9066,9.4114 7.8842,-5.274 c -3.6882,-2.062 -7.6705,-3.4638 -11.7908,-4.1374 z"
           style="font-size:357.42126465px;font-style:normal;font-weight:normal;line-height:125%;letter-spacing:0px;word-spacing:0px;fill:#111111;fill-opacity:1;stroke:none;font-family:Sans"
           inkscape:connector-curvature="0" />
        <path
           transform="matrix(-0.03857562,-0.0506143,0.04049148,-0.0308605,-2571.3651,3032.2762)"
           style="fill:#ffffff;fill-opacity:1;stroke:none"
           inkscape:transform-center-x="2.1834612"
           inkscape:transform-center-y="-1.3181583"
           d="m 208.57143,449.50504 c 0,15.77956 -15.35023,28.57142 -34.28571,28.57142 -18.93548,0 -34.28571,-12.79186 -34.28571,-28.57142 0,-15.77957 15.35023,-28.57143 34.28571,-28.57143 18.93548,0 34.28571,12.79186 34.28571,28.57143 z"
           id="path17889"
           inkscape:connector-curvature="0" />
      </g>
    </g>
  </g>
</svg>
